<svg id="svg" version="1.1" xmlns="http://www.w3.org/2000/svg" xmlns:xlink="http://www.w3.org/1999/xlink" width="400" height="400" viewBox="0, 0, 400,400"><g id="svgg"><path id="path0" d="M209.000 73.444 C 207.900 74.007,206.730 74.703,206.400 74.992 C 206.070 75.281,198.960 80.054,190.600 85.598 C 182.240 91.143,174.912 96.021,174.316 96.440 C 173.720 96.858,173.118 97.200,172.979 97.200 C 172.840 97.200,171.888 97.844,170.863 98.632 C 169.355 99.791,159.088 106.703,150.600 112.273 C 149.720 112.850,142.342 117.750,134.205 123.161 C 126.068 128.573,119.102 133.180,118.726 133.400 C 118.349 133.620,114.727 136.028,110.676 138.750 L 103.313 143.701 103.056 147.312 C 102.915 149.298,102.800 174.353,102.800 202.989 L 102.800 255.056 103.743 255.875 C 104.261 256.326,104.859 256.764,105.072 256.848 C 105.560 257.040,116.130 264.111,116.400 264.425 C 116.510 264.553,116.870 264.787,117.200 264.945 C 118.306 265.473,119.327 266.146,140.334 280.200 C 151.844 287.900,161.539 294.380,161.878 294.600 C 165.438 296.912,194.299 316.057,194.600 316.306 C 195.099 316.720,200.856 320.522,201.400 320.797 C 202.205 321.205,206.616 324.215,207.150 324.721 C 208.333 325.843,211.275 326.948,211.949 326.524 C 213.598 325.487,213.946 74.958,212.302 72.900 C 211.743 72.201,211.281 72.277,209.000 73.444 M250.007 146.273 C 243.376 152.803,237.793 158.439,237.601 158.798 C 237.322 159.319,241.228 163.449,256.826 179.128 C 269.557 191.926,276.400 199.084,276.400 199.604 C 276.400 200.122,270.105 206.746,258.504 218.438 C 238.997 238.098,237.600 239.547,237.600 240.117 C 237.600 240.845,261.427 264.400,262.163 264.400 C 262.588 264.400,270.854 256.470,282.051 245.320 C 301.829 225.625,301.838 225.616,302.742 225.606 C 303.040 225.603,311.140 233.409,320.742 242.954 C 340.667 262.761,342.374 264.391,343.200 264.399 C 344.201 264.408,367.200 241.006,367.200 239.979 C 367.200 239.346,361.760 233.634,348.108 219.932 C 337.607 209.393,328.868 200.507,328.688 200.185 C 328.172 199.263,328.024 199.422,348.109 179.266 C 361.254 166.075,367.200 159.844,367.200 159.261 C 367.200 158.249,343.757 134.302,342.945 134.484 C 342.660 134.548,334.440 142.520,324.677 152.200 C 314.915 161.880,305.910 170.783,304.666 171.985 L 302.404 174.169 282.493 154.285 C 271.542 143.348,262.465 134.400,262.323 134.400 C 262.180 134.400,256.638 139.743,250.007 146.273 M54.515 145.088 C 53.708 145.189,52.853 145.696,52.215 146.455 L 51.200 147.661 51.200 198.558 C 51.200 254.037,51.138 252.485,53.412 254.125 C 54.424 254.856,92.377 254.556,93.587 253.808 C 94.035 253.531,94.203 146.595,93.757 145.433 C 93.527 144.832,59.004 144.529,54.515 145.088 " stroke="none" fill="#fbfbfb" fill-rule="evenodd"></path><path id="path1" d="M180.545 3.000 C 180.361 3.477,179.506 3.600,176.357 3.600 C 173.986 3.600,172.400 3.760,172.400 4.000 C 172.400 4.233,171.062 4.400,169.187 4.400 C 166.701 4.400,165.923 4.536,165.745 5.000 C 165.573 5.447,164.861 5.600,162.957 5.600 C 161.519 5.600,160.400 5.775,160.400 6.000 C 160.400 6.220,159.404 6.400,158.187 6.400 C 156.590 6.400,155.911 6.567,155.745 7.000 C 155.583 7.420,154.928 7.600,153.557 7.600 C 152.481 7.600,151.600 7.780,151.600 8.000 C 151.600 8.220,150.784 8.400,149.787 8.400 C 148.545 8.400,147.902 8.589,147.745 9.000 C 147.595 9.391,146.972 9.600,145.957 9.600 C 145.101 9.600,144.400 9.780,144.400 10.000 C 144.400 10.220,143.770 10.400,143.000 10.400 C 142.022 10.400,141.600 10.581,141.600 11.000 C 141.600 11.443,141.136 11.600,139.824 11.600 C 138.847 11.600,137.936 11.780,137.800 12.000 C 137.664 12.220,137.113 12.400,136.576 12.400 C 135.975 12.400,135.600 12.631,135.600 13.000 C 135.600 13.433,135.156 13.600,134.000 13.600 C 133.120 13.600,132.400 13.780,132.400 14.000 C 132.400 14.220,131.770 14.400,131.000 14.400 C 130.022 14.400,129.600 14.581,129.600 15.000 C 129.600 15.419,129.178 15.600,128.200 15.600 C 127.430 15.600,126.800 15.780,126.800 16.000 C 126.800 16.220,126.344 16.400,125.787 16.400 C 125.231 16.400,124.671 16.670,124.545 17.000 C 124.418 17.330,123.884 17.600,123.357 17.600 C 122.831 17.600,122.400 17.780,122.400 18.000 C 122.400 18.220,121.854 18.400,121.187 18.400 C 120.479 18.400,119.879 18.649,119.745 19.000 C 119.618 19.330,119.084 19.600,118.557 19.600 C 118.031 19.600,117.600 19.780,117.600 20.000 C 117.600 20.220,117.150 20.400,116.600 20.400 C 115.978 20.400,115.600 20.627,115.600 21.000 C 115.600 21.373,115.222 21.600,114.600 21.600 C 114.050 21.600,113.600 21.780,113.600 22.000 C 113.600 22.220,113.150 22.400,112.600 22.400 C 111.978 22.400,111.600 22.627,111.600 23.000 C 111.600 23.373,111.222 23.600,110.600 23.600 C 110.050 23.600,109.600 23.780,109.600 24.000 C 109.600 24.220,109.150 24.400,108.600 24.400 C 107.978 24.400,107.600 24.627,107.600 25.000 C 107.600 25.373,107.222 25.600,106.600 25.600 C 106.050 25.600,105.600 25.780,105.600 26.000 C 105.600 26.220,105.150 26.400,104.600 26.400 C 103.978 26.400,103.600 26.627,103.600 27.000 C 103.600 27.330,103.330 27.600,103.000 27.600 C 102.670 27.600,102.400 27.780,102.400 28.000 C 102.400 28.220,101.950 28.400,101.400 28.400 C 100.778 28.400,100.400 28.627,100.400 29.000 C 100.400 29.340,100.041 29.600,99.571 29.600 C 99.116 29.600,98.492 29.825,98.185 30.100 C 96.862 31.287,96.409 31.600,96.017 31.600 C 95.788 31.600,95.600 31.780,95.600 32.000 C 95.600 32.220,95.150 32.400,94.600 32.400 C 93.978 32.400,93.600 32.627,93.600 33.000 C 93.600 33.330,93.330 33.600,93.000 33.600 C 92.670 33.600,92.400 33.780,92.400 34.000 C 92.400 34.220,92.065 34.400,91.656 34.400 C 91.247 34.400,90.574 34.850,90.161 35.400 C 89.747 35.951,89.004 36.400,88.505 36.400 C 87.967 36.400,87.600 36.643,87.600 37.000 C 87.600 37.330,87.330 37.600,87.000 37.600 C 86.670 37.600,86.400 37.780,86.400 38.000 C 86.400 38.220,86.065 38.400,85.656 38.400 C 85.247 38.400,84.574 38.850,84.161 39.400 C 83.748 39.950,83.183 40.400,82.905 40.400 C 82.627 40.400,82.400 40.670,82.400 41.000 C 82.400 41.340,82.041 41.600,81.571 41.600 C 80.686 41.600,79.600 42.466,79.600 43.171 C 79.600 43.407,79.330 43.600,79.000 43.600 C 78.670 43.600,78.400 43.780,78.400 44.000 C 78.400 44.220,78.065 44.400,77.656 44.400 C 77.247 44.400,76.574 44.850,76.161 45.400 C 75.748 45.950,75.183 46.400,74.905 46.400 C 74.627 46.400,74.400 46.593,74.400 46.829 C 74.400 47.382,73.382 48.400,72.829 48.400 C 72.593 48.400,72.400 48.670,72.400 49.000 C 72.400 49.330,72.085 49.606,71.700 49.613 C 70.835 49.628,69.600 50.529,69.600 51.144 C 69.600 51.395,69.407 51.600,69.171 51.600 C 68.618 51.600,67.600 52.618,67.600 53.171 C 67.600 53.407,67.407 53.600,67.171 53.600 C 66.618 53.600,65.600 54.618,65.600 55.171 C 65.600 55.407,65.407 55.600,65.171 55.600 C 64.618 55.600,63.600 56.618,63.600 57.171 C 63.600 57.407,63.407 57.600,63.171 57.600 C 62.618 57.600,61.600 58.618,61.600 59.171 C 61.600 59.407,61.407 59.600,61.171 59.600 C 60.618 59.600,59.600 60.618,59.600 61.171 C 59.600 61.407,59.407 61.600,59.171 61.600 C 58.618 61.600,57.600 62.618,57.600 63.171 C 57.600 63.407,57.407 63.600,57.171 63.600 C 56.618 63.600,55.600 64.618,55.600 65.171 C 55.600 65.407,55.407 65.600,55.171 65.600 C 54.618 65.600,53.600 66.618,53.600 67.171 C 53.600 67.407,53.407 67.600,53.171 67.600 C 52.638 67.600,51.600 68.610,51.600 69.129 C 51.600 69.341,51.330 69.618,51.000 69.745 C 50.670 69.871,50.400 70.263,50.400 70.616 C 50.400 71.345,49.471 72.400,48.829 72.400 C 48.593 72.400,48.400 72.592,48.400 72.827 C 48.400 73.062,47.770 73.848,47.000 74.574 C 46.230 75.300,45.600 76.278,45.600 76.747 C 45.600 77.216,45.407 77.600,45.171 77.600 C 44.618 77.600,43.600 78.618,43.600 79.171 C 43.600 79.407,43.330 79.600,43.000 79.600 C 42.660 79.600,42.400 79.959,42.400 80.429 C 42.400 81.314,41.534 82.400,40.829 82.400 C 40.593 82.400,40.400 82.670,40.400 83.000 C 40.400 83.330,40.220 83.600,40.000 83.600 C 39.780 83.600,39.600 84.050,39.600 84.600 C 39.600 85.150,39.407 85.600,39.171 85.600 C 38.466 85.600,37.600 86.686,37.600 87.571 C 37.600 88.041,37.340 88.400,37.000 88.400 C 36.670 88.400,36.400 88.670,36.400 89.000 C 36.400 89.330,36.220 89.600,36.000 89.600 C 35.780 89.600,35.600 90.050,35.600 90.600 C 35.600 91.150,35.407 91.600,35.171 91.600 C 34.466 91.600,33.600 92.686,33.600 93.571 C 33.600 94.027,33.375 94.401,33.100 94.403 C 32.584 94.406,31.600 96.161,31.600 97.080 C 31.600 97.366,31.330 97.600,31.000 97.600 C 30.627 97.600,30.400 97.978,30.400 98.600 C 30.400 99.150,30.220 99.600,30.000 99.600 C 29.780 99.600,29.600 100.050,29.600 100.600 C 29.600 101.150,29.407 101.600,29.171 101.600 C 28.479 101.600,27.600 102.679,27.600 103.529 C 27.600 103.961,27.330 104.418,27.000 104.545 C 26.670 104.671,26.400 105.141,26.400 105.587 C 26.400 106.034,26.220 106.400,26.000 106.400 C 25.780 106.400,25.600 106.850,25.600 107.400 C 25.600 108.022,25.373 108.400,25.000 108.400 C 24.627 108.400,24.400 108.778,24.400 109.400 C 24.400 109.950,24.220 110.400,24.000 110.400 C 23.780 110.400,23.600 110.850,23.600 111.400 C 23.600 112.022,23.373 112.400,23.000 112.400 C 22.627 112.400,22.400 112.778,22.400 113.400 C 22.400 113.950,22.220 114.400,22.000 114.400 C 21.780 114.400,21.600 114.831,21.600 115.357 C 21.600 115.884,21.330 116.418,21.000 116.545 C 20.670 116.671,20.400 117.130,20.400 117.564 C 20.400 117.998,20.220 118.464,20.000 118.600 C 19.780 118.736,19.600 119.467,19.600 120.224 C 19.600 121.180,19.417 121.600,19.000 121.600 C 18.627 121.600,18.400 121.978,18.400 122.600 C 18.400 123.150,18.220 123.600,18.000 123.600 C 17.780 123.600,17.600 123.973,17.600 124.429 C 17.600 124.884,17.330 125.527,17.000 125.857 C 16.670 126.187,16.400 126.894,16.400 127.429 C 16.400 127.963,16.220 128.400,16.000 128.400 C 15.780 128.400,15.600 129.120,15.600 130.000 C 15.600 131.156,15.433 131.600,15.000 131.600 C 14.581 131.600,14.400 132.022,14.400 133.000 C 14.400 133.770,14.220 134.400,14.000 134.400 C 13.780 134.400,13.600 134.863,13.600 135.429 C 13.600 135.994,13.330 136.727,13.000 137.057 C 12.670 137.387,12.400 138.274,12.400 139.029 C 12.400 139.783,12.220 140.400,12.000 140.400 C 11.780 140.400,11.600 141.120,11.600 142.000 C 11.600 143.156,11.433 143.600,11.000 143.600 C 10.583 143.600,10.400 144.020,10.400 144.976 C 10.400 145.733,10.220 146.464,10.000 146.600 C 9.780 146.736,9.600 147.627,9.600 148.581 C 9.600 149.753,9.406 150.389,9.000 150.545 C 8.590 150.702,8.400 151.343,8.400 152.564 C 8.400 153.548,8.220 154.464,8.000 154.600 C 7.780 154.736,7.600 155.917,7.600 157.224 C 7.600 159.069,7.466 159.600,7.000 159.600 C 6.534 159.600,6.400 160.131,6.400 161.976 C 6.400 163.283,6.220 164.464,6.000 164.600 C 5.780 164.736,5.600 166.282,5.600 168.036 C 5.600 170.502,5.464 171.277,5.000 171.455 C 4.523 171.639,4.400 172.494,4.400 175.643 C 4.400 178.014,4.240 179.600,4.000 179.600 C 3.739 179.600,3.600 186.533,3.600 199.600 C 3.600 212.667,3.739 219.600,4.000 219.600 C 4.238 219.600,4.400 221.117,4.400 223.351 C 4.400 226.197,4.545 227.222,5.000 227.600 C 5.440 227.966,5.600 228.936,5.600 231.249 C 5.600 233.083,5.767 234.400,6.000 234.400 C 6.222 234.400,6.400 235.471,6.400 236.813 C 6.400 238.588,6.558 239.286,7.000 239.455 C 7.439 239.624,7.600 240.316,7.600 242.043 C 7.600 243.348,7.779 244.400,8.000 244.400 C 8.220 244.400,8.400 245.300,8.400 246.400 C 8.400 247.911,8.547 248.400,9.000 248.400 C 9.453 248.400,9.600 248.889,9.600 250.400 C 9.600 251.500,9.780 252.400,10.000 252.400 C 10.220 252.400,10.400 253.036,10.400 253.813 C 10.400 254.699,10.623 255.311,11.000 255.455 C 11.370 255.597,11.600 256.205,11.600 257.043 C 11.600 257.789,11.780 258.400,12.000 258.400 C 12.220 258.400,12.400 259.107,12.400 259.971 C 12.400 260.836,12.670 261.813,13.000 262.143 C 13.330 262.473,13.600 263.116,13.600 263.571 C 13.600 264.027,13.780 264.400,14.000 264.400 C 14.220 264.400,14.400 265.120,14.400 266.000 C 14.400 267.156,14.567 267.600,15.000 267.600 C 15.419 267.600,15.600 268.022,15.600 269.000 C 15.600 269.770,15.780 270.400,16.000 270.400 C 16.220 270.400,16.400 270.837,16.400 271.371 C 16.400 271.906,16.670 272.613,17.000 272.943 C 17.330 273.273,17.600 274.006,17.600 274.571 C 17.600 275.137,17.780 275.600,18.000 275.600 C 18.220 275.600,18.400 276.050,18.400 276.600 C 18.400 277.222,18.627 277.600,19.000 277.600 C 19.419 277.600,19.600 278.022,19.600 279.000 C 19.600 279.770,19.780 280.400,20.000 280.400 C 20.220 280.400,20.400 280.850,20.400 281.400 C 20.400 282.022,20.627 282.400,21.000 282.400 C 21.373 282.400,21.600 282.778,21.600 283.400 C 21.600 283.950,21.780 284.400,22.000 284.400 C 22.220 284.400,22.400 284.850,22.400 285.400 C 22.400 286.022,22.627 286.400,23.000 286.400 C 23.373 286.400,23.600 286.778,23.600 287.400 C 23.600 287.950,23.780 288.400,24.000 288.400 C 24.220 288.400,24.400 288.850,24.400 289.400 C 24.400 290.022,24.627 290.400,25.000 290.400 C 25.373 290.400,25.600 290.778,25.600 291.400 C 25.600 291.950,25.780 292.400,26.000 292.400 C 26.220 292.400,26.400 292.850,26.400 293.400 C 26.400 294.022,26.627 294.400,27.000 294.400 C 27.373 294.400,27.600 294.778,27.600 295.400 C 27.600 295.950,27.780 296.400,28.000 296.400 C 28.220 296.400,28.400 296.670,28.400 297.000 C 28.400 297.330,28.670 297.600,29.000 297.600 C 29.373 297.600,29.600 297.978,29.600 298.600 C 29.600 299.150,29.780 299.600,30.000 299.600 C 30.220 299.600,30.400 299.966,30.400 300.413 C 30.400 300.859,30.670 301.329,31.000 301.455 C 31.330 301.582,31.600 302.026,31.600 302.443 C 31.600 302.859,31.780 303.200,32.000 303.200 C 32.220 303.200,32.400 303.470,32.400 303.800 C 32.400 304.130,32.670 304.400,33.000 304.400 C 33.373 304.400,33.600 304.778,33.600 305.400 C 33.600 305.950,33.780 306.400,34.000 306.400 C 34.220 306.400,34.400 306.670,34.400 307.000 C 34.400 307.330,34.670 307.600,35.000 307.600 C 35.340 307.600,35.600 307.959,35.600 308.429 C 35.600 309.314,36.466 310.400,37.171 310.400 C 37.407 310.400,37.600 310.850,37.600 311.400 C 37.600 311.950,37.780 312.400,38.000 312.400 C 38.220 312.400,38.400 312.670,38.400 313.000 C 38.400 313.330,38.670 313.600,39.000 313.600 C 39.330 313.600,39.606 313.915,39.613 314.300 C 39.628 315.165,40.529 316.400,41.144 316.400 C 41.395 316.400,41.600 316.670,41.600 317.000 C 41.600 317.330,41.780 317.600,42.000 317.600 C 42.220 317.600,42.400 317.935,42.400 318.344 C 42.400 318.753,42.850 319.426,43.400 319.839 C 43.950 320.252,44.400 320.817,44.400 321.095 C 44.400 321.373,44.670 321.600,45.000 321.600 C 45.330 321.600,45.606 321.915,45.613 322.300 C 45.628 323.165,46.529 324.400,47.144 324.400 C 47.395 324.400,47.600 324.593,47.600 324.829 C 47.600 325.382,48.618 326.400,49.171 326.400 C 49.407 326.400,49.600 326.670,49.600 327.000 C 49.600 327.330,49.780 327.600,50.000 327.600 C 50.220 327.600,50.400 327.935,50.400 328.344 C 50.400 328.753,50.850 329.426,51.400 329.839 C 51.950 330.252,52.400 330.817,52.400 331.095 C 52.400 331.373,52.593 331.600,52.829 331.600 C 53.382 331.600,54.400 332.618,54.400 333.171 C 54.400 333.407,54.593 333.600,54.829 333.600 C 55.382 333.600,56.400 334.618,56.400 335.171 C 56.400 335.407,56.593 335.600,56.829 335.600 C 57.382 335.600,58.400 336.618,58.400 337.171 C 58.400 337.407,58.593 337.600,58.829 337.600 C 59.382 337.600,60.400 338.618,60.400 339.171 C 60.400 339.407,60.593 339.600,60.829 339.600 C 61.382 339.600,62.400 340.618,62.400 341.171 C 62.400 341.407,62.593 341.600,62.829 341.600 C 63.382 341.600,64.400 342.618,64.400 343.171 C 64.400 343.407,64.593 343.600,64.829 343.600 C 65.382 343.600,66.400 344.618,66.400 345.171 C 66.400 345.407,66.593 345.600,66.829 345.600 C 67.382 345.600,68.400 346.618,68.400 347.171 C 68.400 347.407,68.627 347.600,68.905 347.600 C 69.183 347.600,69.748 348.050,70.161 348.600 C 70.574 349.150,71.247 349.600,71.656 349.600 C 72.065 349.600,72.400 349.780,72.400 350.000 C 72.400 350.220,72.670 350.400,73.000 350.400 C 73.330 350.400,73.600 350.593,73.600 350.829 C 73.600 351.382,74.618 352.400,75.171 352.400 C 75.407 352.400,75.600 352.605,75.600 352.856 C 75.600 353.471,76.835 354.372,77.700 354.387 C 78.085 354.394,78.400 354.670,78.400 355.000 C 78.400 355.330,78.627 355.600,78.905 355.600 C 79.183 355.600,79.748 356.050,80.161 356.600 C 80.574 357.150,81.247 357.600,81.656 357.600 C 82.065 357.600,82.400 357.780,82.400 358.000 C 82.400 358.220,82.670 358.400,83.000 358.400 C 83.330 358.400,83.600 358.605,83.600 358.856 C 83.600 359.471,84.835 360.372,85.700 360.387 C 86.085 360.394,86.400 360.670,86.400 361.000 C 86.400 361.330,86.670 361.600,87.000 361.600 C 87.330 361.600,87.600 361.780,87.600 362.000 C 87.600 362.220,88.050 362.400,88.600 362.400 C 89.150 362.400,89.600 362.593,89.600 362.829 C 89.600 363.534,90.686 364.400,91.571 364.400 C 92.041 364.400,92.400 364.660,92.400 365.000 C 92.400 365.330,92.670 365.600,93.000 365.600 C 93.330 365.600,93.600 365.780,93.600 366.000 C 93.600 366.220,94.050 366.400,94.600 366.400 C 95.222 366.400,95.600 366.627,95.600 367.000 C 95.600 367.330,95.870 367.600,96.200 367.600 C 96.530 367.600,96.800 367.780,96.800 368.000 C 96.800 368.220,97.141 368.400,97.557 368.400 C 97.974 368.400,98.418 368.670,98.545 369.000 C 98.671 369.330,99.141 369.600,99.587 369.600 C 100.034 369.600,100.400 369.780,100.400 370.000 C 100.400 370.220,100.850 370.400,101.400 370.400 C 102.022 370.400,102.400 370.627,102.400 371.000 C 102.400 371.330,102.670 371.600,103.000 371.600 C 103.330 371.600,103.600 371.780,103.600 372.000 C 103.600 372.220,104.050 372.400,104.600 372.400 C 105.222 372.400,105.600 372.627,105.600 373.000 C 105.600 373.373,105.978 373.600,106.600 373.600 C 107.150 373.600,107.600 373.780,107.600 374.000 C 107.600 374.220,108.050 374.400,108.600 374.400 C 109.222 374.400,109.600 374.627,109.600 375.000 C 109.600 375.373,109.978 375.600,110.600 375.600 C 111.150 375.600,111.600 375.780,111.600 376.000 C 111.600 376.220,112.050 376.400,112.600 376.400 C 113.222 376.400,113.600 376.627,113.600 377.000 C 113.600 377.373,113.978 377.600,114.600 377.600 C 115.150 377.600,115.600 377.780,115.600 378.000 C 115.600 378.220,116.050 378.400,116.600 378.400 C 117.222 378.400,117.600 378.627,117.600 379.000 C 117.600 379.373,117.978 379.600,118.600 379.600 C 119.150 379.600,119.600 379.780,119.600 380.000 C 119.600 380.220,120.230 380.400,121.000 380.400 C 121.978 380.400,122.400 380.581,122.400 381.000 C 122.400 381.373,122.778 381.600,123.400 381.600 C 123.950 381.600,124.400 381.780,124.400 382.000 C 124.400 382.220,124.863 382.400,125.429 382.400 C 125.994 382.400,126.727 382.670,127.057 383.000 C 127.387 383.330,128.094 383.600,128.629 383.600 C 129.163 383.600,129.600 383.780,129.600 384.000 C 129.600 384.220,130.230 384.400,131.000 384.400 C 131.978 384.400,132.400 384.581,132.400 385.000 C 132.400 385.433,132.844 385.600,134.000 385.600 C 134.880 385.600,135.600 385.780,135.600 386.000 C 135.600 386.220,135.973 386.400,136.429 386.400 C 136.884 386.400,137.527 386.670,137.857 387.000 C 138.187 387.330,139.164 387.600,140.029 387.600 C 140.893 387.600,141.600 387.780,141.600 388.000 C 141.600 388.220,142.211 388.400,142.957 388.400 C 143.795 388.400,144.403 388.630,144.545 389.000 C 144.689 389.377,145.301 389.600,146.187 389.600 C 146.964 389.600,147.600 389.780,147.600 390.000 C 147.600 390.220,148.500 390.400,149.600 390.400 C 151.111 390.400,151.600 390.547,151.600 391.000 C 151.600 391.453,152.089 391.600,153.600 391.600 C 154.700 391.600,155.600 391.780,155.600 392.000 C 155.600 392.221,156.652 392.400,157.957 392.400 C 159.684 392.400,160.376 392.561,160.545 393.000 C 160.714 393.442,161.412 393.600,163.187 393.600 C 164.529 393.600,165.600 393.778,165.600 394.000 C 165.600 394.233,166.917 394.400,168.751 394.400 C 171.064 394.400,172.034 394.560,172.400 395.000 C 172.778 395.455,173.803 395.600,176.649 395.600 C 178.883 395.600,180.400 395.762,180.400 396.000 C 180.400 396.261,187.333 396.400,200.400 396.400 C 213.467 396.400,220.400 396.261,220.400 396.000 C 220.400 395.760,221.986 395.600,224.357 395.600 C 227.506 395.600,228.361 395.477,228.545 395.000 C 228.723 394.536,229.498 394.400,231.964 394.400 C 233.718 394.400,235.264 394.220,235.400 394.000 C 235.536 393.780,236.717 393.600,238.024 393.600 C 239.869 393.600,240.400 393.466,240.400 393.000 C 240.400 392.534,240.931 392.400,242.776 392.400 C 244.083 392.400,245.264 392.220,245.400 392.000 C 245.536 391.780,246.452 391.600,247.436 391.600 C 248.657 391.600,249.298 391.410,249.455 391.000 C 249.611 390.594,250.247 390.400,251.419 390.400 C 252.373 390.400,253.264 390.220,253.400 390.000 C 253.536 389.780,254.267 389.600,255.024 389.600 C 255.980 389.600,256.400 389.417,256.400 389.000 C 256.400 388.567,256.844 388.400,258.000 388.400 C 258.880 388.400,259.600 388.220,259.600 388.000 C 259.600 387.780,260.217 387.600,260.971 387.600 C 261.726 387.600,262.613 387.330,262.943 387.000 C 263.273 386.670,264.006 386.400,264.571 386.400 C 265.137 386.400,265.600 386.220,265.600 386.000 C 265.600 385.780,266.230 385.600,267.000 385.600 C 267.978 385.600,268.400 385.419,268.400 385.000 C 268.400 384.567,268.844 384.400,270.000 384.400 C 270.880 384.400,271.600 384.220,271.600 384.000 C 271.600 383.780,272.037 383.600,272.571 383.600 C 273.106 383.600,273.813 383.330,274.143 383.000 C 274.473 382.670,275.116 382.400,275.571 382.400 C 276.027 382.400,276.400 382.220,276.400 382.000 C 276.400 381.780,276.850 381.600,277.400 381.600 C 278.022 381.600,278.400 381.373,278.400 381.000 C 278.400 380.583,278.820 380.400,279.776 380.400 C 280.533 380.400,281.264 380.220,281.400 380.000 C 281.536 379.780,282.002 379.600,282.436 379.600 C 282.870 379.600,283.329 379.330,283.455 379.000 C 283.582 378.670,284.116 378.400,284.643 378.400 C 285.169 378.400,285.600 378.220,285.600 378.000 C 285.600 377.780,286.050 377.600,286.600 377.600 C 287.222 377.600,287.600 377.373,287.600 377.000 C 287.600 376.627,287.978 376.400,288.600 376.400 C 289.150 376.400,289.600 376.220,289.600 376.000 C 289.600 375.780,290.050 375.600,290.600 375.600 C 291.222 375.600,291.600 375.373,291.600 375.000 C 291.600 374.627,291.978 374.400,292.600 374.400 C 293.150 374.400,293.600 374.220,293.600 374.000 C 293.600 373.780,293.966 373.600,294.413 373.600 C 294.859 373.600,295.329 373.330,295.455 373.000 C 295.582 372.670,296.039 372.400,296.471 372.400 C 297.321 372.400,298.400 371.521,298.400 370.829 C 298.400 370.593,298.850 370.400,299.400 370.400 C 299.950 370.400,300.400 370.220,300.400 370.000 C 300.400 369.780,300.850 369.600,301.400 369.600 C 302.022 369.600,302.400 369.373,302.400 369.000 C 302.400 368.670,302.634 368.400,302.920 368.400 C 303.839 368.400,305.594 367.416,305.597 366.900 C 305.599 366.625,305.973 366.400,306.429 366.400 C 307.314 366.400,308.400 365.534,308.400 364.829 C 308.400 364.593,308.850 364.400,309.400 364.400 C 309.950 364.400,310.400 364.220,310.400 364.000 C 310.400 363.780,310.670 363.600,311.000 363.600 C 311.330 363.600,311.600 363.330,311.600 363.000 C 311.600 362.660,311.959 362.400,312.429 362.400 C 313.314 362.400,314.400 361.534,314.400 360.829 C 314.400 360.593,314.850 360.400,315.400 360.400 C 315.950 360.400,316.400 360.220,316.400 360.000 C 316.400 359.780,316.670 359.600,317.000 359.600 C 317.330 359.600,317.600 359.407,317.600 359.171 C 317.600 358.466,318.686 357.600,319.571 357.600 C 320.041 357.600,320.400 357.340,320.400 357.000 C 320.400 356.670,320.593 356.400,320.829 356.400 C 321.382 356.400,322.400 355.382,322.400 354.829 C 322.400 354.593,322.784 354.400,323.253 354.400 C 323.722 354.400,324.700 353.770,325.426 353.000 C 326.152 352.230,326.938 351.600,327.173 351.600 C 327.408 351.600,327.600 351.407,327.600 351.171 C 327.600 350.529,328.655 349.600,329.384 349.600 C 329.737 349.600,330.129 349.330,330.255 349.000 C 330.382 348.670,330.659 348.400,330.871 348.400 C 331.390 348.400,332.400 347.362,332.400 346.829 C 332.400 346.593,332.593 346.400,332.829 346.400 C 333.382 346.400,334.400 345.382,334.400 344.829 C 334.400 344.593,334.593 344.400,334.829 344.400 C 335.382 344.400,336.400 343.382,336.400 342.829 C 336.400 342.593,336.593 342.400,336.829 342.400 C 337.382 342.400,338.400 341.382,338.400 340.829 C 338.400 340.593,338.593 340.400,338.829 340.400 C 339.382 340.400,340.400 339.382,340.400 338.829 C 340.400 338.593,340.593 338.400,340.829 338.400 C 341.382 338.400,342.400 337.382,342.400 336.829 C 342.400 336.593,342.593 336.400,342.829 336.400 C 343.382 336.400,344.400 335.382,344.400 334.829 C 344.400 334.593,344.593 334.400,344.829 334.400 C 345.382 334.400,346.400 333.382,346.400 332.829 C 346.400 332.593,346.593 332.400,346.829 332.400 C 347.382 332.400,348.400 331.382,348.400 330.829 C 348.400 330.593,348.605 330.400,348.856 330.400 C 349.471 330.400,350.372 329.165,350.387 328.300 C 350.394 327.915,350.670 327.600,351.000 327.600 C 351.330 327.600,351.600 327.407,351.600 327.171 C 351.600 326.618,352.618 325.600,353.171 325.600 C 353.407 325.600,353.600 325.373,353.600 325.095 C 353.600 324.817,354.050 324.252,354.600 323.839 C 355.150 323.426,355.600 322.753,355.600 322.344 C 355.600 321.935,355.780 321.600,356.000 321.600 C 356.220 321.600,356.400 321.330,356.400 321.000 C 356.400 320.670,356.593 320.400,356.829 320.400 C 357.534 320.400,358.400 319.314,358.400 318.429 C 358.400 317.959,358.660 317.600,359.000 317.600 C 359.330 317.600,359.600 317.373,359.600 317.095 C 359.600 316.817,360.050 316.252,360.600 315.839 C 361.150 315.426,361.600 314.753,361.600 314.344 C 361.600 313.935,361.780 313.600,362.000 313.600 C 362.220 313.600,362.400 313.330,362.400 313.000 C 362.400 312.670,362.670 312.400,363.000 312.400 C 363.357 312.400,363.600 312.033,363.600 311.495 C 363.600 310.996,364.049 310.253,364.600 309.839 C 365.150 309.426,365.600 308.753,365.600 308.344 C 365.600 307.935,365.780 307.600,366.000 307.600 C 366.220 307.600,366.400 307.330,366.400 307.000 C 366.400 306.670,366.670 306.400,367.000 306.400 C 367.373 306.400,367.600 306.022,367.600 305.400 C 367.600 304.850,367.780 304.400,368.000 304.400 C 368.220 304.400,368.400 304.207,368.400 303.971 C 368.400 303.736,368.625 303.292,368.900 302.985 C 370.177 301.562,370.400 301.179,370.400 300.417 C 370.400 299.957,370.663 299.600,371.000 299.600 C 371.373 299.600,371.600 299.222,371.600 298.600 C 371.600 298.050,371.780 297.600,372.000 297.600 C 372.220 297.600,372.400 297.330,372.400 297.000 C 372.400 296.670,372.670 296.400,373.000 296.400 C 373.373 296.400,373.600 296.022,373.600 295.400 C 373.600 294.850,373.780 294.400,374.000 294.400 C 374.220 294.400,374.400 293.950,374.400 293.400 C 374.400 292.778,374.627 292.400,375.000 292.400 C 375.373 292.400,375.600 292.022,375.600 291.400 C 375.600 290.850,375.780 290.400,376.000 290.400 C 376.220 290.400,376.400 289.950,376.400 289.400 C 376.400 288.778,376.627 288.400,377.000 288.400 C 377.373 288.400,377.600 288.022,377.600 287.400 C 377.600 286.850,377.780 286.400,378.000 286.400 C 378.220 286.400,378.400 285.950,378.400 285.400 C 378.400 284.778,378.627 284.400,379.000 284.400 C 379.373 284.400,379.600 284.022,379.600 283.400 C 379.600 282.850,379.780 282.400,380.000 282.400 C 380.220 282.400,380.400 281.969,380.400 281.443 C 380.400 280.916,380.670 280.382,381.000 280.255 C 381.351 280.121,381.600 279.521,381.600 278.813 C 381.600 278.146,381.780 277.600,382.000 277.600 C 382.220 277.600,382.400 277.169,382.400 276.643 C 382.400 276.116,382.670 275.582,383.000 275.455 C 383.330 275.329,383.600 274.769,383.600 274.213 C 383.600 273.656,383.780 273.200,384.000 273.200 C 384.220 273.200,384.400 272.570,384.400 271.800 C 384.400 270.822,384.581 270.400,385.000 270.400 C 385.419 270.400,385.600 269.978,385.600 269.000 C 385.600 268.230,385.780 267.600,386.000 267.600 C 386.220 267.600,386.400 266.880,386.400 266.000 C 386.400 264.844,386.567 264.400,387.000 264.400 C 387.369 264.400,387.600 264.025,387.600 263.424 C 387.600 262.887,387.780 262.336,388.000 262.200 C 388.220 262.064,388.400 261.153,388.400 260.176 C 388.400 258.864,388.557 258.400,389.000 258.400 C 389.419 258.400,389.600 257.978,389.600 257.000 C 389.600 256.230,389.780 255.600,390.000 255.600 C 390.220 255.600,390.400 254.899,390.400 254.043 C 390.400 253.028,390.609 252.405,391.000 252.255 C 391.411 252.098,391.600 251.455,391.600 250.213 C 391.600 249.216,391.780 248.400,392.000 248.400 C 392.220 248.400,392.400 247.519,392.400 246.443 C 392.400 245.072,392.580 244.417,393.000 244.255 C 393.433 244.089,393.600 243.410,393.600 241.813 C 393.600 240.596,393.780 239.600,394.000 239.600 C 394.225 239.600,394.400 238.481,394.400 237.043 C 394.400 235.139,394.553 234.427,395.000 234.255 C 395.464 234.077,395.600 233.299,395.600 230.813 C 395.600 228.938,395.767 227.600,396.000 227.600 C 396.240 227.600,396.400 226.014,396.400 223.643 C 396.400 220.494,396.523 219.639,397.000 219.455 C 397.522 219.255,397.600 216.655,397.600 199.413 C 397.600 182.068,397.525 179.600,397.000 179.600 C 396.507 179.600,396.400 178.892,396.400 175.624 C 396.400 173.404,396.223 171.538,396.000 171.400 C 395.780 171.264,395.600 169.718,395.600 167.964 C 395.600 165.498,395.464 164.723,395.000 164.545 C 394.561 164.376,394.400 163.684,394.400 161.957 C 394.400 160.652,394.221 159.600,394.000 159.600 C 393.780 159.600,393.600 158.632,393.600 157.449 C 393.600 156.025,393.397 155.130,393.000 154.800 C 392.617 154.482,392.400 153.597,392.400 152.351 C 392.400 151.278,392.220 150.400,392.000 150.400 C 391.780 150.400,391.600 149.702,391.600 148.849 C 391.600 147.958,391.345 147.086,391.000 146.800 C 390.670 146.526,390.400 145.694,390.400 144.951 C 390.400 144.208,390.220 143.600,390.000 143.600 C 389.780 143.600,389.600 142.880,389.600 142.000 C 389.600 140.844,389.433 140.400,389.000 140.400 C 388.556 140.400,388.400 139.933,388.400 138.600 C 388.400 137.610,388.220 136.800,388.000 136.800 C 387.780 136.800,387.600 136.260,387.600 135.600 C 387.600 134.800,387.400 134.400,387.000 134.400 C 386.581 134.400,386.400 133.978,386.400 133.000 C 386.400 132.230,386.220 131.600,386.000 131.600 C 385.780 131.600,385.600 130.964,385.600 130.187 C 385.600 129.301,385.377 128.689,385.000 128.545 C 384.662 128.415,384.400 127.819,384.400 127.181 C 384.400 126.557,384.220 125.936,384.000 125.800 C 383.780 125.664,383.600 125.113,383.600 124.576 C 383.600 123.975,383.369 123.600,383.000 123.600 C 382.627 123.600,382.400 123.222,382.400 122.600 C 382.400 122.050,382.220 121.600,382.000 121.600 C 381.780 121.600,381.600 120.964,381.600 120.187 C 381.600 119.301,381.377 118.689,381.000 118.545 C 380.670 118.418,380.400 117.884,380.400 117.357 C 380.400 116.831,380.220 116.400,380.000 116.400 C 379.780 116.400,379.600 115.950,379.600 115.400 C 379.600 114.778,379.373 114.400,379.000 114.400 C 378.627 114.400,378.400 114.022,378.400 113.400 C 378.400 112.850,378.220 112.400,378.000 112.400 C 377.780 112.400,377.600 111.950,377.600 111.400 C 377.600 110.778,377.373 110.400,377.000 110.400 C 376.627 110.400,376.400 110.022,376.400 109.400 C 376.400 108.850,376.220 108.400,376.000 108.400 C 375.780 108.400,375.600 107.950,375.600 107.400 C 375.600 106.778,375.373 106.400,375.000 106.400 C 374.627 106.400,374.400 106.022,374.400 105.400 C 374.400 104.850,374.220 104.400,374.000 104.400 C 373.780 104.400,373.600 104.065,373.600 103.656 C 373.600 103.247,373.150 102.574,372.600 102.161 C 372.049 101.747,371.600 101.004,371.600 100.505 C 371.600 99.967,371.357 99.600,371.000 99.600 C 370.627 99.600,370.400 99.222,370.400 98.600 C 370.400 98.050,370.240 97.600,370.043 97.600 C 369.847 97.600,369.574 97.150,369.436 96.600 C 369.298 96.050,369.008 95.600,368.792 95.600 C 368.577 95.600,368.400 95.330,368.400 95.000 C 368.400 94.670,368.220 94.400,368.000 94.400 C 367.780 94.400,367.600 94.065,367.600 93.656 C 367.600 93.247,367.150 92.574,366.600 92.161 C 366.049 91.747,365.600 91.004,365.600 90.505 C 365.600 89.967,365.357 89.600,365.000 89.600 C 364.670 89.600,364.400 89.330,364.400 89.000 C 364.400 88.670,364.220 88.400,364.000 88.400 C 363.780 88.400,363.600 88.065,363.600 87.656 C 363.600 87.247,363.150 86.574,362.600 86.161 C 362.050 85.748,361.600 85.087,361.600 84.693 C 361.600 84.298,361.330 83.871,361.000 83.745 C 360.670 83.618,360.400 83.341,360.400 83.129 C 360.400 82.610,359.362 81.600,358.829 81.600 C 358.593 81.600,358.400 81.150,358.400 80.600 C 358.400 80.050,358.220 79.600,358.000 79.600 C 357.780 79.600,357.600 79.330,357.600 79.000 C 357.600 78.670,357.407 78.400,357.171 78.400 C 356.529 78.400,355.600 77.345,355.600 76.616 C 355.600 76.263,355.330 75.871,355.000 75.745 C 354.670 75.618,354.400 75.341,354.400 75.129 C 354.400 74.610,353.362 73.600,352.829 73.600 C 352.593 73.600,352.400 73.407,352.400 73.171 C 352.400 72.618,351.382 71.600,350.829 71.600 C 350.593 71.600,350.400 71.216,350.400 70.747 C 350.400 70.278,349.770 69.300,349.000 68.574 C 348.230 67.848,347.600 67.062,347.600 66.827 C 347.600 66.592,347.407 66.400,347.171 66.400 C 346.618 66.400,345.600 65.382,345.600 64.829 C 345.600 64.593,345.407 64.400,345.171 64.400 C 344.618 64.400,343.600 63.382,343.600 62.829 C 343.600 62.593,343.407 62.400,343.171 62.400 C 342.618 62.400,341.600 61.382,341.600 60.829 C 341.600 60.593,341.407 60.400,341.171 60.400 C 340.618 60.400,339.600 59.382,339.600 58.829 C 339.600 58.593,339.407 58.400,339.171 58.400 C 338.618 58.400,337.600 57.382,337.600 56.829 C 337.600 56.593,337.407 56.400,337.171 56.400 C 336.618 56.400,335.600 55.382,335.600 54.829 C 335.600 54.593,335.407 54.400,335.171 54.400 C 334.618 54.400,333.600 53.382,333.600 52.829 C 333.600 52.593,333.408 52.400,333.173 52.400 C 332.938 52.400,332.152 51.770,331.426 51.000 C 330.700 50.230,329.722 49.600,329.253 49.600 C 328.784 49.600,328.400 49.407,328.400 49.171 C 328.400 48.618,327.382 47.600,326.829 47.600 C 326.593 47.600,326.400 47.407,326.400 47.171 C 326.400 46.638,325.390 45.600,324.871 45.600 C 324.659 45.600,324.382 45.330,324.255 45.000 C 324.129 44.670,323.737 44.400,323.384 44.400 C 322.655 44.400,321.600 43.471,321.600 42.829 C 321.600 42.593,321.330 42.400,321.000 42.400 C 320.670 42.400,320.400 42.220,320.400 42.000 C 320.400 41.780,319.950 41.600,319.400 41.600 C 318.850 41.600,318.400 41.407,318.400 41.171 C 318.400 40.638,317.390 39.600,316.871 39.600 C 316.659 39.600,316.382 39.330,316.255 39.000 C 316.129 38.670,315.702 38.400,315.307 38.400 C 314.913 38.400,314.252 37.950,313.839 37.400 C 313.426 36.850,312.753 36.400,312.344 36.400 C 311.935 36.400,311.600 36.220,311.600 36.000 C 311.600 35.780,311.330 35.600,311.000 35.600 C 310.670 35.600,310.400 35.330,310.400 35.000 C 310.400 34.643,310.033 34.400,309.495 34.400 C 308.996 34.400,308.253 33.951,307.839 33.400 C 307.426 32.850,306.753 32.400,306.344 32.400 C 305.935 32.400,305.600 32.220,305.600 32.000 C 305.600 31.780,305.330 31.600,305.000 31.600 C 304.670 31.600,304.400 31.423,304.400 31.208 C 304.400 30.992,303.950 30.702,303.400 30.564 C 302.850 30.426,302.400 30.153,302.400 29.957 C 302.400 29.760,301.950 29.600,301.400 29.600 C 300.778 29.600,300.400 29.373,300.400 29.000 C 300.400 28.643,300.033 28.400,299.495 28.400 C 298.996 28.400,298.253 27.951,297.839 27.400 C 297.426 26.850,296.753 26.400,296.344 26.400 C 295.935 26.400,295.600 26.220,295.600 26.000 C 295.600 25.780,295.150 25.600,294.600 25.600 C 293.978 25.600,293.600 25.373,293.600 25.000 C 293.600 24.627,293.222 24.400,292.600 24.400 C 292.050 24.400,291.600 24.220,291.600 24.000 C 291.600 23.780,291.150 23.600,290.600 23.600 C 289.978 23.600,289.600 23.373,289.600 23.000 C 289.600 22.627,289.222 22.400,288.600 22.400 C 288.050 22.400,287.600 22.220,287.600 22.000 C 287.600 21.780,287.150 21.600,286.600 21.600 C 285.978 21.600,285.600 21.373,285.600 21.000 C 285.600 20.627,285.222 20.400,284.600 20.400 C 284.050 20.400,283.600 20.220,283.600 20.000 C 283.600 19.780,283.169 19.600,282.643 19.600 C 282.116 19.600,281.582 19.330,281.455 19.000 C 281.311 18.623,280.699 18.400,279.813 18.400 C 279.036 18.400,278.400 18.220,278.400 18.000 C 278.400 17.780,277.950 17.600,277.400 17.600 C 276.778 17.600,276.400 17.373,276.400 17.000 C 276.400 16.631,276.025 16.400,275.424 16.400 C 274.887 16.400,274.336 16.220,274.200 16.000 C 274.064 15.780,273.443 15.600,272.819 15.600 C 272.181 15.600,271.585 15.338,271.455 15.000 C 271.311 14.623,270.699 14.400,269.813 14.400 C 269.036 14.400,268.400 14.220,268.400 14.000 C 268.400 13.780,267.770 13.600,267.000 13.600 C 266.022 13.600,265.600 13.419,265.600 13.000 C 265.600 12.600,265.200 12.400,264.400 12.400 C 263.740 12.400,263.200 12.220,263.200 12.000 C 263.200 11.780,262.390 11.600,261.400 11.600 C 260.067 11.600,259.600 11.444,259.600 11.000 C 259.600 10.567,259.156 10.400,258.000 10.400 C 257.120 10.400,256.400 10.220,256.400 10.000 C 256.400 9.780,255.792 9.600,255.049 9.600 C 254.306 9.600,253.474 9.330,253.200 9.000 C 252.914 8.655,252.042 8.400,251.151 8.400 C 250.298 8.400,249.600 8.220,249.600 8.000 C 249.600 7.780,248.722 7.600,247.649 7.600 C 246.403 7.600,245.518 7.383,245.200 7.000 C 244.870 6.603,243.975 6.400,242.551 6.400 C 241.368 6.400,240.400 6.220,240.400 6.000 C 240.400 5.779,239.348 5.600,238.043 5.600 C 236.316 5.600,235.624 5.439,235.455 5.000 C 235.277 4.536,234.502 4.400,232.036 4.400 C 230.282 4.400,228.736 4.220,228.600 4.000 C 228.462 3.777,226.596 3.600,224.376 3.600 C 221.108 3.600,220.400 3.493,220.400 3.000 C 220.400 2.475,217.932 2.400,200.587 2.400 C 183.345 2.400,180.745 2.478,180.545 3.000 M212.700 71.625 C 213.400 71.869,214.020 72.423,214.154 72.925 C 214.545 74.381,214.434 325.060,214.042 326.074 C 213.073 328.583,209.735 328.456,206.799 325.799 C 206.435 325.470,205.988 325.200,205.806 325.200 C 205.624 325.200,204.886 324.750,204.164 324.200 C 203.443 323.650,202.744 323.200,202.609 323.200 C 202.475 323.200,201.898 322.767,201.328 322.238 C 200.758 321.710,199.821 321.035,199.246 320.739 C 198.671 320.443,198.056 319.976,197.880 319.701 C 197.704 319.425,197.361 319.200,197.118 319.200 C 196.875 319.200,196.086 318.750,195.364 318.200 C 194.643 317.650,193.906 317.200,193.727 317.200 C 193.547 317.200,192.692 316.570,191.827 315.800 C 190.962 315.030,190.061 314.400,189.823 314.400 C 189.586 314.400,188.907 313.950,188.313 313.400 C 187.720 312.850,187.044 312.400,186.811 312.400 C 186.578 312.400,185.150 311.500,183.638 310.400 C 182.126 309.300,180.770 308.400,180.625 308.400 C 180.480 308.400,179.945 307.950,179.435 307.400 C 178.925 306.850,178.257 306.400,177.950 306.400 C 177.643 306.400,176.907 305.950,176.313 305.400 C 175.720 304.850,174.979 304.400,174.666 304.400 C 174.354 304.400,173.874 304.130,173.600 303.800 C 173.326 303.470,172.945 303.200,172.754 303.200 C 172.563 303.200,171.944 302.795,171.380 302.300 C 170.392 301.434,168.048 299.910,166.800 299.323 C 166.470 299.168,165.752 298.627,165.204 298.121 C 164.657 297.614,163.646 296.934,162.959 296.608 C 162.272 296.281,161.468 295.723,161.172 295.366 C 160.875 295.009,160.265 294.553,159.816 294.353 C 158.456 293.748,156.225 292.368,155.800 291.870 C 155.580 291.611,154.929 291.158,154.354 290.862 C 153.779 290.565,152.842 289.890,152.272 289.362 C 151.702 288.833,150.951 288.400,150.605 288.400 C 150.258 288.400,149.871 288.130,149.745 287.800 C 149.618 287.470,149.174 287.200,148.757 287.200 C 148.341 287.200,148.000 287.062,148.000 286.893 C 148.000 286.725,147.010 285.995,145.800 285.271 C 144.590 284.547,143.600 283.785,143.600 283.578 C 143.600 283.370,143.430 283.200,143.223 283.200 C 142.711 283.200,137.600 279.976,137.600 279.653 C 137.600 279.511,137.105 279.175,136.500 278.906 C 135.895 278.636,134.913 277.962,134.317 277.408 C 133.722 276.854,132.951 276.400,132.605 276.400 C 132.258 276.400,131.871 276.130,131.745 275.800 C 131.618 275.470,131.326 275.200,131.095 275.200 C 130.864 275.200,130.086 274.750,129.364 274.200 C 128.643 273.650,127.888 273.200,127.685 273.200 C 127.483 273.200,126.876 272.795,126.337 272.300 C 125.798 271.805,124.827 271.130,124.179 270.801 C 123.530 270.471,122.910 270.105,122.800 269.988 C 122.690 269.870,121.610 269.153,120.400 268.394 C 119.190 267.635,118.140 266.876,118.067 266.707 C 117.993 266.538,117.678 266.400,117.367 266.400 C 117.055 266.400,116.800 266.228,116.800 266.019 C 116.800 265.809,116.178 265.343,115.418 264.982 C 114.659 264.621,113.826 264.073,113.569 263.763 C 113.312 263.453,112.854 263.200,112.551 263.200 C 112.248 263.200,112.000 263.020,112.000 262.800 C 112.000 262.580,111.749 262.400,111.443 262.400 C 111.136 262.400,110.782 262.130,110.655 261.800 C 110.529 261.470,110.243 261.200,110.020 261.200 C 109.613 261.200,105.173 258.490,104.800 258.013 C 104.690 257.873,103.925 257.348,103.100 256.846 L 101.600 255.935 101.522 234.267 C 101.413 204.398,101.615 144.334,101.826 143.587 C 101.921 143.249,102.584 142.633,103.299 142.217 C 104.015 141.801,104.690 141.357,104.800 141.230 C 105.143 140.836,106.567 139.988,107.300 139.742 C 107.685 139.612,108.000 139.348,108.000 139.153 C 108.000 138.959,108.227 138.800,108.504 138.800 C 108.781 138.800,109.466 138.395,110.025 137.900 C 111.308 136.765,112.404 136.043,113.300 135.742 C 113.685 135.612,114.000 135.348,114.000 135.153 C 114.000 134.959,114.279 134.800,114.619 134.800 C 114.960 134.800,115.655 134.350,116.165 133.800 C 116.675 133.250,117.343 132.800,117.650 132.800 C 117.957 132.800,118.693 132.350,119.287 131.800 C 119.880 131.250,120.510 130.800,120.687 130.800 C 120.863 130.800,121.466 130.395,122.025 129.900 C 123.308 128.765,124.404 128.043,125.300 127.742 C 125.685 127.612,126.000 127.386,126.000 127.240 C 126.000 127.093,126.585 126.632,127.300 126.216 C 128.015 125.801,128.690 125.357,128.800 125.230 C 129.143 124.836,130.567 123.988,131.300 123.742 C 131.685 123.612,132.000 123.348,132.000 123.153 C 132.000 122.959,132.360 122.800,132.800 122.800 C 133.240 122.800,133.600 122.655,133.600 122.477 C 133.600 122.085,137.065 119.600,137.612 119.600 C 137.825 119.600,138.000 119.432,138.000 119.227 C 138.000 119.022,138.328 118.750,138.729 118.622 C 139.131 118.495,139.806 118.078,140.229 117.695 C 140.653 117.313,141.675 116.644,142.500 116.209 C 143.325 115.774,144.000 115.279,144.000 115.109 C 144.000 114.939,144.261 114.800,144.579 114.800 C 144.898 114.800,145.644 114.350,146.238 113.800 C 146.831 113.250,147.651 112.800,148.058 112.800 C 148.466 112.800,148.800 112.646,148.800 112.458 C 148.800 112.080,153.327 108.804,153.864 108.794 C 154.049 108.790,154.809 108.250,155.554 107.594 C 156.299 106.937,157.030 106.400,157.179 106.400 C 157.327 106.400,157.808 106.085,158.246 105.700 C 159.331 104.748,160.460 104.024,161.300 103.742 C 161.685 103.612,162.000 103.376,162.000 103.216 C 162.000 103.057,162.630 102.587,163.400 102.172 C 164.170 101.757,164.800 101.279,164.800 101.109 C 164.800 100.939,164.989 100.800,165.219 100.800 C 165.685 100.800,169.470 98.447,170.424 97.565 C 171.271 96.780,172.470 96.020,173.300 95.742 C 173.685 95.612,174.000 95.386,174.000 95.240 C 174.000 95.093,174.585 94.632,175.300 94.216 C 176.015 93.801,176.690 93.355,176.800 93.226 C 176.910 93.098,177.675 92.638,178.500 92.205 C 179.325 91.772,180.000 91.291,180.000 91.136 C 180.000 90.981,180.328 90.750,180.729 90.622 C 181.131 90.495,181.806 90.078,182.229 89.695 C 182.653 89.313,183.675 88.644,184.500 88.209 C 185.325 87.774,186.000 87.279,186.000 87.109 C 186.000 86.939,186.159 86.800,186.354 86.800 C 186.807 86.800,191.756 83.529,191.933 83.113 C 192.007 82.941,192.218 82.800,192.404 82.800 C 192.829 82.800,197.753 79.505,197.933 79.100 C 198.007 78.935,198.279 78.800,198.537 78.800 C 198.796 78.800,199.456 78.395,200.004 77.900 C 200.552 77.405,201.675 76.644,202.500 76.209 C 203.325 75.774,204.000 75.279,204.000 75.109 C 204.000 74.939,204.180 74.800,204.399 74.800 C 204.619 74.800,205.667 74.176,206.728 73.413 C 209.764 71.232,210.737 70.941,212.700 71.625 M282.306 152.400 C 293.123 163.180,302.225 172.000,302.535 172.000 C 302.845 172.000,307.036 168.023,311.849 163.162 C 316.662 158.301,321.140 153.792,321.800 153.141 C 334.369 140.755,342.630 132.800,342.924 132.800 C 344.138 132.800,369.341 158.415,369.126 159.430 C 369.057 159.756,360.111 168.919,349.247 179.793 L 329.495 199.565 345.394 215.482 C 354.138 224.237,362.830 233.065,364.710 235.100 C 366.589 237.135,368.380 238.800,368.690 238.800 C 369.783 238.800,369.089 240.933,367.715 241.795 C 367.009 242.238,366.424 242.792,366.415 243.027 C 366.391 243.690,343.700 266.400,343.062 266.400 C 342.492 266.400,339.600 263.372,339.600 262.775 C 339.600 262.598,339.275 262.351,338.877 262.225 C 338.480 262.098,330.272 254.146,320.637 244.552 C 303.495 227.484,303.097 227.120,302.126 227.640 C 301.580 227.932,292.475 236.773,281.893 247.286 C 271.311 257.798,262.513 266.400,262.341 266.400 C 261.385 266.400,237.555 242.593,236.604 240.689 C 235.931 239.341,236.094 239.027,238.166 237.684 C 238.407 237.528,239.075 236.770,239.649 236.000 C 240.223 235.230,242.532 232.800,244.780 230.600 C 247.029 228.400,249.258 226.174,249.734 225.654 C 250.210 225.134,256.045 219.224,262.700 212.521 C 269.819 205.351,274.800 200.030,274.800 199.594 C 274.800 198.932,262.761 186.689,252.384 176.800 C 250.422 174.930,248.813 173.271,248.809 173.114 C 248.804 172.956,245.920 169.918,242.400 166.363 C 238.880 162.808,236.000 159.603,236.000 159.241 C 236.000 158.544,261.543 132.800,262.235 132.800 C 262.458 132.800,271.490 141.620,282.306 152.400 M94.500 144.358 C 95.245 145.065,95.643 254.135,94.904 254.844 C 93.562 256.130,54.454 256.310,53.047 255.036 C 52.783 254.796,52.214 254.401,51.783 254.157 C 50.603 253.491,50.404 246.114,50.165 194.200 C 49.940 145.080,49.952 144.800,52.338 144.800 C 52.555 144.800,52.808 144.575,52.899 144.300 C 53.311 143.058,93.190 143.114,94.500 144.358 " stroke="none" fill="#2c2c2c" fill-rule="evenodd"></path><path id="path2" d="M208.786 73.107 C 205.348 75.180,172.822 96.955,172.959 97.093 C 173.117 97.251,175.657 95.589,193.522 83.642 C 209.348 73.057,208.716 73.465,210.300 72.826 C 213.417 71.571,213.302 66.596,213.212 198.200 C 213.132 314.027,213.016 325.853,211.949 326.524 C 211.275 326.948,208.333 325.843,207.150 324.721 C 206.514 324.119,201.995 321.074,201.400 320.848 C 201.180 320.764,200.730 320.470,200.400 320.193 C 199.406 319.362,195.200 316.760,195.200 316.977 C 195.200 317.140,200.840 321.039,205.360 324.000 C 212.956 328.976,213.007 328.936,213.406 317.757 C 213.814 306.333,213.852 83.719,213.447 77.888 C 213.011 71.618,212.362 70.952,208.786 73.107 M159.400 105.857 C 152.360 110.580,146.420 114.636,146.200 114.869 C 145.636 115.468,150.664 112.243,159.463 106.362 C 163.608 103.592,167.720 100.860,168.600 100.291 C 170.233 99.237,172.761 97.212,172.400 97.249 C 172.290 97.260,166.440 101.134,159.400 105.857 M140.058 118.774 C 134.827 122.251,132.036 124.386,135.600 122.185 C 140.669 119.055,146.252 115.122,145.500 115.212 C 145.445 115.218,142.996 116.822,140.058 118.774 M126.498 127.804 C 121.074 131.425,118.459 133.490,122.900 130.645 C 129.941 126.134,132.959 124.000,132.298 124.000 C 132.242 124.000,129.632 125.712,126.498 127.804 M116.500 134.440 C 115.565 135.102,114.800 135.733,114.800 135.841 C 114.800 135.950,115.610 135.481,116.600 134.800 C 117.590 134.119,118.400 133.480,118.400 133.381 C 118.400 133.105,118.324 133.148,116.500 134.440 M249.212 146.588 L 236.628 159.177 237.814 160.472 C 238.466 161.185,247.057 169.882,256.904 179.800 C 266.750 189.718,275.086 198.230,275.426 198.716 C 276.248 199.889,276.339 199.771,268.030 208.216 C 264.250 212.057,261.328 215.200,261.537 215.200 C 262.224 215.200,276.400 200.239,276.400 199.513 C 276.400 199.113,267.888 190.248,256.826 179.128 C 241.654 163.877,237.327 159.311,237.589 158.826 C 237.879 158.288,256.698 139.577,260.932 135.615 L 262.413 134.231 282.408 154.200 L 302.404 174.169 304.666 171.985 C 305.910 170.783,314.915 161.880,324.677 152.200 C 334.440 142.520,342.660 134.548,342.945 134.484 C 343.757 134.302,367.200 158.249,367.200 159.261 C 367.200 159.844,361.254 166.075,348.109 179.266 C 328.007 199.440,328.171 199.262,328.691 200.191 C 329.086 200.897,366.423 238.400,366.731 238.400 C 366.948 238.400,364.239 235.651,341.472 212.764 C 334.471 205.726,328.801 199.803,328.872 199.600 C 328.942 199.397,337.730 190.400,348.400 179.607 C 359.070 168.813,367.855 159.733,367.922 159.429 C 368.128 158.495,344.038 134.025,342.895 134.008 C 342.618 134.003,333.661 142.679,322.992 153.286 C 312.323 163.893,303.308 172.732,302.959 172.927 C 302.179 173.363,303.921 175.004,281.056 152.300 C 270.919 142.235,262.439 134.000,262.210 134.000 C 261.982 134.000,256.133 139.665,249.212 146.588 M108.542 139.701 C 105.291 141.826,102.783 143.740,102.647 144.200 C 102.517 144.640,102.408 169.864,102.405 200.254 L 102.400 255.508 103.400 256.163 C 103.950 256.524,104.400 256.678,104.400 256.505 C 104.400 256.333,104.040 255.968,103.600 255.693 C 102.783 255.183,102.297 158.007,103.058 147.294 L 103.315 143.666 108.858 140.019 C 113.606 136.894,114.825 135.994,114.300 136.001 C 114.245 136.002,111.654 137.667,108.542 139.701 M54.119 144.678 C 53.635 144.773,52.690 145.475,52.019 146.239 L 50.800 147.628 50.897 193.914 L 50.993 240.200 51.197 193.709 L 51.400 147.218 52.509 146.109 L 53.617 145.000 73.472 144.879 C 89.436 144.782,93.399 144.860,93.694 145.279 C 93.978 145.683,94.024 145.665,93.897 145.200 C 93.740 144.622,56.870 144.138,54.119 144.678 M94.194 199.600 C 94.194 228.090,94.242 239.745,94.300 225.500 C 94.358 211.255,94.358 187.945,94.300 173.700 C 94.242 159.455,94.194 171.110,94.194 199.600 M249.075 227.431 C 236.076 240.604,236.655 239.816,238.474 241.839 C 240.994 244.643,260.603 264.097,261.530 264.713 C 262.574 265.407,260.208 267.618,290.054 238.059 C 300.646 227.569,302.409 225.978,303.054 226.331 C 303.464 226.556,310.550 233.422,318.800 241.589 C 338.169 260.762,342.751 265.200,343.182 265.200 C 343.602 265.200,356.261 252.688,363.125 245.486 C 367.888 240.491,368.558 239.500,367.462 239.079 C 367.079 238.932,366.977 239.145,367.107 239.823 C 367.308 240.876,344.415 264.410,343.200 264.399 C 342.374 264.391,340.667 262.761,320.742 242.954 C 311.140 233.409,303.040 225.603,302.742 225.606 C 301.838 225.616,301.829 225.625,282.051 245.320 C 270.854 256.470,262.588 264.400,262.163 264.400 C 261.353 264.400,237.600 240.807,237.600 240.002 C 237.600 239.728,242.865 234.202,249.300 227.723 C 255.735 221.243,261.075 215.865,261.167 215.771 C 261.258 215.677,261.202 215.600,261.041 215.600 C 260.881 215.600,255.496 220.924,249.075 227.431 M51.227 250.726 C 51.184 252.190,52.910 254.828,53.883 254.787 C 54.057 254.779,53.776 254.420,53.258 253.989 C 52.741 253.557,52.078 252.438,51.785 251.502 C 51.428 250.358,51.245 250.104,51.227 250.726 M93.476 253.858 C 93.334 253.999,86.959 254.239,79.309 254.390 L 65.400 254.665 79.476 254.732 C 89.084 254.779,93.636 254.665,93.816 254.373 C 94.122 253.879,93.857 253.477,93.476 253.858 M105.800 257.788 C 106.460 258.329,107.147 258.778,107.327 258.786 C 107.506 258.794,108.226 259.226,108.927 259.747 C 110.843 261.173,112.400 262.120,112.400 261.861 C 112.400 261.596,105.249 256.799,104.858 256.802 C 104.716 256.803,105.140 257.247,105.800 257.788 M114.000 262.991 C 114.000 263.076,114.540 263.530,115.200 264.000 C 115.860 264.470,116.399 264.707,116.397 264.527 C 116.396 264.347,115.856 263.893,115.197 263.519 C 114.539 263.144,114.000 262.907,114.000 262.991 M118.800 266.137 C 118.800 266.310,131.624 274.969,133.690 276.192 C 134.069 276.416,136.841 278.269,139.848 280.308 C 142.856 282.348,145.392 283.941,145.485 283.849 C 145.622 283.711,120.090 266.502,119.102 266.067 C 118.936 265.993,118.800 266.025,118.800 266.137 M146.000 284.174 C 146.000 284.364,151.149 288.000,151.418 288.000 C 151.516 288.000,152.813 288.856,154.299 289.902 C 158.083 292.566,161.915 295.008,161.200 294.300 C 160.130 293.241,146.000 283.828,146.000 284.174 M162.400 295.400 C 162.674 295.730,163.078 296.000,163.298 296.000 C 163.521 296.000,163.478 295.735,163.200 295.400 C 162.926 295.070,162.522 294.800,162.302 294.800 C 162.079 294.800,162.122 295.065,162.400 295.400 M164.018 296.314 C 164.028 296.472,165.153 297.319,166.518 298.197 C 169.380 300.039,169.806 300.256,169.462 299.701 C 169.120 299.147,163.996 295.959,164.018 296.314 M170.000 300.362 C 170.000 300.556,170.267 300.817,170.594 300.942 C 170.920 301.067,175.968 304.372,181.811 308.285 C 194.753 316.952,194.800 316.982,194.800 316.437 C 194.800 316.197,194.651 316.000,194.469 316.000 C 194.287 316.000,189.652 313.009,184.169 309.354 C 171.142 300.669,170.000 299.944,170.000 300.362 " stroke="none" fill="#9c9c9c" fill-rule="evenodd"></path><path id="path3" d="M213.744 79.600 C 213.744 81.690,213.812 82.545,213.894 81.500 C 213.976 80.455,213.976 78.745,213.894 77.700 C 213.812 76.655,213.744 77.510,213.744 79.600 M332.994 142.900 L 327.800 148.200 333.100 143.006 C 338.023 138.181,338.581 137.600,338.294 137.600 C 338.236 137.600,335.851 139.985,332.994 142.900 M357.400 147.600 C 360.033 150.240,362.277 152.400,362.387 152.400 C 362.497 152.400,360.433 150.240,357.800 147.600 C 355.167 144.960,352.923 142.800,352.813 142.800 C 352.703 142.800,354.767 144.960,357.400 147.600 M55.700 144.291 C 56.525 144.378,57.875 144.378,58.700 144.291 C 59.525 144.205,58.850 144.134,57.200 144.134 C 55.550 144.134,54.875 144.205,55.700 144.291 M76.500 144.276 C 76.885 144.376,77.515 144.376,77.900 144.276 C 78.285 144.175,77.970 144.093,77.200 144.093 C 76.430 144.093,76.115 144.175,76.500 144.276 M82.500 144.298 C 84.645 144.370,88.155 144.370,90.300 144.298 C 92.445 144.226,90.690 144.167,86.400 144.167 C 82.110 144.167,80.355 144.226,82.500 144.298 M102.173 153.600 C 102.173 158.990,102.230 161.195,102.299 158.500 C 102.368 155.805,102.368 151.395,102.299 148.700 C 102.230 146.005,102.173 148.210,102.173 153.600 M94.594 199.600 C 94.594 227.430,94.642 238.815,94.700 224.900 C 94.758 210.985,94.758 188.215,94.700 174.300 C 94.642 160.385,94.594 171.770,94.594 199.600 M362.800 152.925 C 362.800 152.994,363.385 153.579,364.100 154.225 L 365.400 155.400 364.225 154.100 C 363.130 152.888,362.800 152.616,362.800 152.925 M288.000 159.000 C 288.746 159.770,289.447 160.400,289.557 160.400 C 289.667 160.400,289.146 159.770,288.400 159.000 C 287.654 158.230,286.953 157.600,286.843 157.600 C 286.733 157.600,287.254 158.230,288.000 159.000 M244.200 167.600 C 247.715 171.120,250.681 174.000,250.791 174.000 C 250.901 174.000,248.115 171.120,244.600 167.600 C 241.085 164.080,238.119 161.200,238.009 161.200 C 237.899 161.200,240.685 164.080,244.200 167.600 M293.400 164.400 C 294.928 165.940,296.269 167.200,296.379 167.200 C 296.489 167.200,295.328 165.940,293.800 164.400 C 292.272 162.860,290.931 161.600,290.821 161.600 C 290.711 161.600,291.872 162.860,293.400 164.400 M312.581 163.300 L 311.000 165.000 312.700 163.419 C 314.281 161.948,314.584 161.600,314.281 161.600 C 314.216 161.600,313.451 162.365,312.581 163.300 M299.200 170.200 C 300.617 171.630,301.867 172.800,301.977 172.800 C 302.087 172.800,301.017 171.630,299.600 170.200 C 298.183 168.770,296.933 167.600,296.823 167.600 C 296.713 167.600,297.783 168.770,299.200 170.200 M358.575 169.700 L 357.400 171.000 358.700 169.825 C 359.415 169.179,360.000 168.594,360.000 168.525 C 360.000 168.216,359.670 168.488,358.575 169.700 M341.598 186.700 L 328.600 199.800 341.700 186.802 C 348.905 179.654,354.800 173.759,354.800 173.702 C 354.800 173.420,353.677 174.525,341.598 186.700 M255.200 178.510 C 255.200 178.571,256.595 179.966,258.300 181.610 L 261.400 184.600 258.410 181.500 C 255.633 178.621,255.200 178.217,255.200 178.510 M267.200 190.600 C 270.384 193.790,273.080 196.400,273.190 196.400 C 273.300 196.400,270.784 193.790,267.600 190.600 C 264.416 187.410,261.720 184.800,261.610 184.800 C 261.500 184.800,264.016 187.410,267.200 190.600 M333.600 204.600 C 336.123 207.130,338.277 209.200,338.387 209.200 C 338.497 209.200,336.523 207.130,334.000 204.600 C 331.477 202.070,329.323 200.000,329.213 200.000 C 329.103 200.000,331.077 202.070,333.600 204.600 M266.995 208.900 L 261.400 214.600 267.100 209.005 C 272.395 203.808,272.981 203.200,272.695 203.200 C 272.637 203.200,270.072 205.765,266.995 208.900 M338.800 209.704 C 338.800 209.761,342.355 213.316,346.700 217.604 L 354.600 225.400 346.804 217.500 C 339.560 210.160,338.800 209.419,338.800 209.704 M256.392 219.500 L 252.600 223.400 256.500 219.608 C 260.122 216.086,260.582 215.600,260.292 215.600 C 260.233 215.600,258.478 217.355,256.392 219.500 M289.797 238.500 L 278.200 250.200 289.900 238.603 C 296.335 232.224,301.600 226.959,301.600 226.903 C 301.600 226.620,300.575 227.627,289.797 238.500 M308.600 232.000 C 311.454 234.860,313.878 237.200,313.988 237.200 C 314.098 237.200,311.854 234.860,309.000 232.000 C 306.146 229.140,303.722 226.800,303.612 226.800 C 303.502 226.800,305.746 229.140,308.600 232.000 M367.981 239.312 C 368.445 239.927,368.389 240.170,367.570 241.112 L 366.623 242.200 367.800 241.103 C 368.953 240.027,368.961 239.991,368.210 239.303 C 367.478 238.632,367.468 238.632,367.981 239.312 M316.000 239.304 C 316.000 239.361,319.555 242.916,323.900 247.204 L 331.800 255.000 324.004 247.100 C 316.760 239.760,316.000 239.019,316.000 239.304 M240.800 245.000 C 241.546 245.770,242.247 246.400,242.357 246.400 C 242.467 246.400,241.946 245.770,241.200 245.000 C 240.454 244.230,239.753 243.600,239.643 243.600 C 239.533 243.600,240.054 244.230,240.800 245.000 M246.383 250.500 C 247.364 251.545,248.219 252.400,248.283 252.400 C 248.584 252.400,248.266 252.041,246.500 250.383 L 244.600 248.600 246.383 250.500 M352.196 256.900 L 344.200 265.000 352.300 257.004 C 359.826 249.574,360.581 248.800,360.296 248.800 C 360.239 248.800,356.594 252.445,352.196 256.900 M250.800 255.000 C 251.995 256.210,253.063 257.200,253.173 257.200 C 253.283 257.200,252.395 256.210,251.200 255.000 C 250.005 253.790,248.937 252.800,248.827 252.800 C 248.717 252.800,249.605 253.790,250.800 255.000 M82.100 255.098 C 84.245 255.170,87.755 255.170,89.900 255.098 C 92.045 255.026,90.290 254.967,86.000 254.967 C 81.710 254.967,79.955 255.026,82.100 255.098 M271.200 257.000 C 270.228 257.990,269.523 258.800,269.633 258.800 C 269.743 258.800,270.628 257.990,271.600 257.000 C 272.572 256.010,273.277 255.200,273.167 255.200 C 273.057 255.200,272.172 256.010,271.200 257.000 M341.570 264.500 C 342.103 265.105,342.913 265.579,343.370 265.554 C 344.174 265.509,344.175 265.501,343.400 265.314 C 342.960 265.207,342.150 264.733,341.600 264.260 L 340.600 263.400 341.570 264.500 M213.764 313.400 C 213.763 317.140,213.823 318.724,213.897 316.920 C 213.971 315.115,213.972 312.055,213.898 310.120 C 213.825 308.184,213.764 309.660,213.764 313.400 M213.314 324.200 C 213.317 325.300,213.395 325.703,213.487 325.095 C 213.579 324.486,213.577 323.586,213.482 323.095 C 213.387 322.603,213.311 323.100,213.314 324.200 " stroke="none" fill="#797979" fill-rule="evenodd"></path><path id="path4" d="M214.188 108.400 C 214.188 122.150,214.238 127.775,214.300 120.900 C 214.361 114.025,214.361 102.775,214.300 95.900 C 214.238 89.025,214.188 94.650,214.188 108.400 M354.783 144.500 C 355.764 145.545,356.619 146.400,356.683 146.400 C 356.984 146.400,356.666 146.041,354.900 144.383 L 353.000 142.600 354.783 144.500 M329.785 145.700 L 327.800 147.800 329.900 145.815 C 331.851 143.971,332.183 143.600,331.885 143.600 C 331.822 143.600,330.877 144.545,329.785 145.700 M50.546 151.800 C 50.547 154.000,50.614 154.849,50.695 153.687 C 50.776 152.524,50.776 150.724,50.693 149.687 C 50.611 148.649,50.545 149.600,50.546 151.800 M94.994 199.800 C 94.994 226.420,95.041 237.369,95.100 224.131 C 95.158 210.893,95.158 189.113,95.100 175.731 C 95.042 162.349,94.994 173.180,94.994 199.800 M313.375 162.100 L 312.200 163.400 313.500 162.225 C 314.215 161.579,314.800 160.994,314.800 160.925 C 314.800 160.616,314.470 160.888,313.375 162.100 M358.575 170.100 L 357.400 171.400 358.700 170.225 C 359.415 169.579,360.000 168.994,360.000 168.925 C 360.000 168.616,359.670 168.888,358.575 170.100 M101.720 171.200 C 101.720 172.410,101.795 172.905,101.887 172.300 C 101.978 171.695,101.978 170.705,101.887 170.100 C 101.795 169.495,101.720 169.990,101.720 171.200 M254.200 178.400 C 255.059 179.280,255.852 180.000,255.962 180.000 C 256.072 180.000,255.459 179.280,254.600 178.400 C 253.741 177.520,252.948 176.800,252.838 176.800 C 252.728 176.800,253.341 177.520,254.200 178.400 M50.574 191.600 C 50.574 197.210,50.630 199.505,50.699 196.700 C 50.768 193.895,50.768 189.305,50.699 186.500 C 50.630 183.695,50.574 185.990,50.574 191.600 M255.191 220.300 L 251.800 223.800 255.300 220.409 C 258.551 217.259,258.982 216.800,258.691 216.800 C 258.631 216.800,257.056 218.375,255.191 220.300 M214.193 264.600 C 214.193 287.480,214.241 296.781,214.300 285.269 C 214.359 273.758,214.359 255.038,214.300 243.669 C 214.241 232.301,214.193 241.720,214.193 264.600 M50.520 235.600 C 50.520 236.810,50.595 237.305,50.687 236.700 C 50.778 236.095,50.778 235.105,50.687 234.500 C 50.595 233.895,50.520 234.390,50.520 235.600 M101.775 244.400 C 101.775 250.230,101.831 252.615,101.899 249.700 C 101.967 246.785,101.967 242.015,101.899 239.100 C 101.831 236.185,101.775 238.570,101.775 244.400 M240.000 244.600 C 240.746 245.370,241.447 246.000,241.557 246.000 C 241.667 246.000,241.146 245.370,240.400 244.600 C 239.654 243.830,238.953 243.200,238.843 243.200 C 238.733 243.200,239.254 243.830,240.000 244.600 M246.383 250.900 C 247.364 251.945,248.219 252.800,248.283 252.800 C 248.584 252.800,248.266 252.441,246.500 250.783 L 244.600 249.000 246.383 250.900 M250.383 254.900 C 251.364 255.945,252.219 256.800,252.283 256.800 C 252.584 256.800,252.266 256.441,250.500 254.783 L 248.600 253.000 250.383 254.900 M65.300 255.499 C 68.765 255.566,74.435 255.566,77.900 255.499 C 81.365 255.433,78.530 255.378,71.600 255.378 C 64.670 255.378,61.835 255.433,65.300 255.499 " stroke="none" fill="#545454" fill-rule="evenodd"></path><path id="path5" d="M213.773 122.600 C 213.773 127.880,213.830 129.985,213.899 127.277 C 213.968 124.569,213.968 120.249,213.899 117.677 C 213.829 115.105,213.772 117.320,213.773 122.600 M94.093 146.800 C 94.093 147.570,94.175 147.885,94.276 147.500 C 94.376 147.115,94.376 146.485,94.276 146.100 C 94.175 145.715,94.093 146.030,94.093 146.800 M358.581 169.300 L 357.000 171.000 358.700 169.419 C 360.281 167.948,360.584 167.600,360.281 167.600 C 360.216 167.600,359.451 168.365,358.581 169.300 M355.178 172.700 L 353.800 174.200 355.300 172.822 C 356.696 171.538,356.984 171.200,356.678 171.200 C 356.612 171.200,355.937 171.875,355.178 172.700 M102.191 221.400 C 102.191 239.880,102.240 247.382,102.300 238.070 C 102.360 228.759,102.360 213.639,102.300 204.470 C 102.240 195.302,102.191 202.920,102.191 221.400 M213.788 253.000 C 213.788 266.200,213.838 271.542,213.900 264.871 C 213.961 258.201,213.961 247.401,213.900 240.871 C 213.838 234.342,213.788 239.800,213.788 253.000 M50.944 243.600 C 50.944 245.690,51.012 246.545,51.094 245.500 C 51.176 244.455,51.176 242.745,51.094 241.700 C 51.012 240.655,50.944 241.510,50.944 243.600 M273.193 254.700 L 268.600 259.400 273.300 254.807 C 275.885 252.280,278.000 250.165,278.000 250.107 C 278.000 249.818,277.460 250.334,273.193 254.700 M94.093 252.400 C 94.093 253.170,94.175 253.485,94.276 253.100 C 94.376 252.715,94.376 252.085,94.276 251.700 C 94.175 251.315,94.093 251.630,94.093 252.400 " stroke="none" fill="#949494" fill-rule="evenodd"></path><path id="path6" d="M213.293 74.800 C 213.293 75.570,213.375 75.885,213.476 75.500 C 213.576 75.115,213.576 74.485,213.476 74.100 C 213.375 73.715,213.293 74.030,213.293 74.800 M213.781 98.200 C 213.781 106.560,213.834 110.037,213.899 105.926 C 213.964 101.816,213.964 94.976,213.900 90.726 C 213.835 86.477,213.782 89.840,213.781 98.200 M63.900 144.298 C 66.155 144.370,69.845 144.370,72.100 144.298 C 74.355 144.227,72.510 144.169,68.000 144.169 C 63.490 144.169,61.645 144.227,63.900 144.298 M362.386 165.500 L 360.200 167.800 362.500 165.614 C 363.765 164.411,364.800 163.376,364.800 163.314 C 364.800 163.017,364.418 163.363,362.386 165.500 M102.177 176.400 C 102.177 182.890,102.232 185.545,102.299 182.300 C 102.366 179.055,102.366 173.745,102.299 170.500 C 102.232 167.255,102.177 169.910,102.177 176.400 M305.200 170.600 C 304.228 171.590,303.523 172.400,303.633 172.400 C 303.743 172.400,304.628 171.590,305.600 170.600 C 306.572 169.610,307.277 168.800,307.167 168.800 C 307.057 168.800,306.172 169.610,305.200 170.600 M273.775 202.100 L 272.600 203.400 273.900 202.225 C 274.615 201.579,275.200 200.994,275.200 200.925 C 275.200 200.616,274.870 200.888,273.775 202.100 M50.909 248.800 C 50.909 249.790,50.987 250.195,51.082 249.700 C 51.178 249.205,51.178 248.395,51.082 247.900 C 50.987 247.405,50.909 247.810,50.909 248.800 M60.300 255.099 C 63.655 255.166,69.145 255.166,72.500 255.099 C 75.855 255.032,73.110 254.978,66.400 254.978 C 59.690 254.978,56.945 255.032,60.300 255.099 M265.789 262.100 L 263.000 265.000 265.900 262.211 C 268.594 259.620,268.983 259.200,268.689 259.200 C 268.628 259.200,267.323 260.505,265.789 262.100 M213.693 280.000 C 213.693 280.770,213.775 281.085,213.876 280.700 C 213.976 280.315,213.976 279.685,213.876 279.300 C 213.775 278.915,213.693 279.230,213.693 280.000 M213.775 296.200 C 213.775 302.140,213.831 304.626,213.899 301.724 C 213.967 298.822,213.967 293.962,213.899 290.924 C 213.831 287.886,213.775 290.260,213.775 296.200 M213.301 321.000 C 213.305 321.880,213.387 322.193,213.483 321.695 C 213.579 321.198,213.575 320.478,213.475 320.095 C 213.375 319.713,213.296 320.120,213.301 321.000 " stroke="none" fill="#8c8c8c" fill-rule="evenodd"></path><path id="path7" d="M206.200 73.835 L 205.000 74.866 206.300 74.006 C 207.015 73.533,207.600 73.068,207.600 72.973 C 207.600 72.673,207.431 72.778,206.200 73.835 M214.157 78.400 C 214.157 81.370,214.220 82.585,214.297 81.100 C 214.374 79.615,214.374 77.185,214.297 75.700 C 214.220 74.215,214.157 75.430,214.157 78.400 M200.000 77.882 L 199.000 78.916 200.300 78.031 C 201.576 77.162,201.896 76.776,201.300 76.824 C 201.135 76.837,200.550 77.314,200.000 77.882 M194.200 81.835 L 193.000 82.866 194.300 82.006 C 195.015 81.533,195.600 81.068,195.600 80.973 C 195.600 80.673,195.431 80.778,194.200 81.835 M188.200 85.835 L 187.000 86.866 188.300 86.006 C 189.015 85.533,189.600 85.068,189.600 84.973 C 189.600 84.673,189.431 84.778,188.200 85.835 M182.800 89.107 C 182.800 89.276,182.305 89.722,181.700 90.097 C 181.095 90.472,180.780 90.783,181.000 90.787 C 181.220 90.792,181.940 90.353,182.600 89.812 C 183.260 89.271,183.575 88.822,183.300 88.814 C 183.025 88.806,182.800 88.938,182.800 89.107 M176.600 93.236 C 176.380 93.454,175.840 93.890,175.400 94.204 C 174.960 94.518,174.780 94.779,175.000 94.785 C 175.220 94.791,175.940 94.353,176.600 93.812 C 177.260 93.271,177.620 92.831,177.400 92.834 C 177.180 92.837,176.820 93.018,176.600 93.236 M170.000 97.882 L 169.000 98.916 170.300 98.031 C 171.576 97.162,171.896 96.776,171.300 96.824 C 171.135 96.837,170.550 97.314,170.000 97.882 M158.800 105.137 C 158.800 105.322,158.170 105.813,157.400 106.228 C 156.630 106.643,156.000 107.130,156.000 107.310 C 156.000 107.491,156.810 107.081,157.800 106.400 C 159.622 105.146,159.925 104.800,159.200 104.800 C 158.980 104.800,158.800 104.952,158.800 105.137 M151.700 110.040 C 150.765 110.702,150.000 111.333,150.000 111.441 C 150.000 111.550,150.810 111.081,151.800 110.400 C 152.790 109.719,153.600 109.080,153.600 108.981 C 153.600 108.705,153.524 108.748,151.700 110.040 M140.800 117.137 C 140.800 117.322,140.170 117.813,139.400 118.228 C 138.630 118.643,138.000 119.130,138.000 119.310 C 138.000 119.491,138.810 119.081,139.800 118.400 C 141.622 117.146,141.925 116.800,141.200 116.800 C 140.980 116.800,140.800 116.952,140.800 117.137 M122.000 129.882 L 121.000 130.916 122.300 130.031 C 123.576 129.162,123.896 128.776,123.300 128.824 C 123.135 128.837,122.550 129.314,122.000 129.882 M116.200 133.676 L 115.400 134.504 116.278 134.050 C 117.202 133.572,117.874 132.783,117.324 132.824 C 117.146 132.837,116.640 133.220,116.200 133.676 M248.914 145.692 C 241.811 152.782,236.000 158.684,236.000 158.806 C 236.000 158.929,241.625 153.385,248.500 146.487 C 263.141 131.797,262.011 132.658,264.044 134.643 C 264.900 135.479,265.600 136.047,265.600 135.906 C 265.600 135.511,262.650 132.807,262.214 132.803 C 262.002 132.802,256.017 138.601,248.914 145.692 M339.988 135.500 L 337.400 138.200 340.000 135.747 C 343.121 132.801,342.820 132.737,347.556 137.345 C 349.622 139.355,350.975 140.550,350.563 140.000 C 349.541 138.636,343.345 132.800,342.920 132.800 C 342.731 132.800,341.412 134.015,339.988 135.500 M271.600 142.200 C 277.143 147.753,277.600 148.184,277.600 147.856 C 277.600 147.607,266.300 136.400,266.049 136.400 C 265.918 136.400,268.416 139.010,271.600 142.200 M110.000 137.882 L 109.000 138.916 110.300 138.031 C 111.576 137.162,111.896 136.776,111.300 136.824 C 111.135 136.837,110.550 137.314,110.000 137.882 M66.500 143.497 C 68.205 143.572,70.995 143.572,72.700 143.497 C 74.405 143.422,73.010 143.361,69.600 143.361 C 66.190 143.361,64.795 143.422,66.500 143.497 M55.300 143.894 C 56.345 143.976,58.055 143.976,59.100 143.894 C 60.145 143.812,59.290 143.744,57.200 143.744 C 55.110 143.744,54.255 143.812,55.300 143.894 M82.921 143.898 C 85.077 143.971,88.497 143.970,90.521 143.898 C 92.544 143.825,90.780 143.766,86.600 143.767 C 82.420 143.767,80.764 143.826,82.921 143.898 M94.797 148.118 L 94.994 151.800 95.114 148.437 C 95.180 146.588,95.092 144.931,94.917 144.755 C 94.743 144.580,94.689 146.093,94.797 148.118 M101.777 157.600 C 101.777 164.090,101.832 166.745,101.899 163.500 C 101.966 160.255,101.966 154.945,101.899 151.700 C 101.832 148.455,101.777 151.110,101.777 157.600 M50.252 147.700 C 49.915 148.958,49.983 236.647,50.323 238.559 C 50.475 239.417,50.600 219.122,50.600 193.459 C 50.600 167.797,50.576 146.800,50.547 146.800 C 50.517 146.800,50.385 147.205,50.252 147.700 M325.853 149.431 C 324.782 150.426,323.983 151.317,324.077 151.411 C 324.171 151.505,325.131 150.686,326.209 149.591 C 328.652 147.111,328.449 147.020,325.853 149.431 M322.928 151.856 C 322.470 152.042,318.592 156.400,318.884 156.400 C 318.964 156.400,320.081 155.320,321.367 154.000 C 322.653 152.680,323.636 151.614,323.552 151.632 C 323.469 151.649,323.188 151.750,322.928 151.856 M285.200 155.800 C 285.946 156.570,286.693 157.200,286.859 157.200 C 287.025 157.200,286.512 156.570,285.719 155.800 C 284.926 155.030,284.180 154.400,284.060 154.400 C 283.941 154.400,284.454 155.030,285.200 155.800 M365.600 155.042 C 365.600 155.190,366.320 156.092,367.200 157.046 C 369.338 159.366,369.423 159.149,364.300 164.394 L 359.800 169.000 364.500 164.407 C 369.891 159.137,369.767 159.465,367.400 156.800 C 366.410 155.685,365.600 154.894,365.600 155.042 M236.488 160.392 C 236.760 160.828,237.252 161.288,237.582 161.414 C 237.912 161.541,237.749 161.184,237.221 160.622 C 236.069 159.397,235.817 159.317,236.488 160.392 M296.000 166.277 C 296.000 166.496,296.360 167.002,296.800 167.400 C 297.240 167.798,297.600 168.034,297.600 167.923 C 297.600 167.813,297.240 167.307,296.800 166.800 C 296.360 166.293,296.000 166.057,296.000 166.277 M248.818 173.048 C 248.843 173.524,252.314 177.025,252.526 176.788 C 252.619 176.685,251.818 175.722,250.747 174.648 C 249.676 173.575,248.808 172.855,248.818 173.048 M254.000 178.600 C 254.746 179.370,255.447 180.000,255.557 180.000 C 255.667 180.000,255.146 179.370,254.400 178.600 C 253.654 177.830,252.953 177.200,252.843 177.200 C 252.733 177.200,253.254 177.830,254.000 178.600 M260.515 184.500 C 260.882 184.775,261.470 185.360,261.821 185.800 C 262.172 186.240,262.329 186.330,262.169 186.000 C 261.705 185.041,260.712 184.000,260.262 184.000 C 260.034 184.000,260.148 184.225,260.515 184.500 M101.334 191.200 C 101.334 192.850,101.405 193.525,101.491 192.700 C 101.578 191.875,101.578 190.525,101.491 189.700 C 101.405 188.875,101.334 189.550,101.334 191.200 M265.600 189.515 C 265.600 189.684,265.960 190.130,266.400 190.507 C 266.840 190.884,267.200 191.054,267.200 190.885 C 267.200 190.716,266.840 190.270,266.400 189.893 C 265.960 189.516,265.600 189.346,265.600 189.515 M101.365 202.800 C 101.365 206.650,101.425 208.225,101.498 206.300 C 101.571 204.375,101.571 201.225,101.498 199.300 C 101.425 197.375,101.365 198.950,101.365 202.800 M251.400 223.906 C 251.180 224.068,250.643 224.650,250.206 225.200 C 249.543 226.035,249.626 226.006,250.706 225.025 C 251.874 223.964,252.191 223.588,251.900 223.606 C 251.845 223.609,251.620 223.744,251.400 223.906 M247.300 228.034 C 246.365 228.929,245.600 229.774,245.600 229.913 C 245.600 230.053,246.452 229.364,247.493 228.383 C 248.533 227.402,249.463 226.555,249.559 226.500 C 249.655 226.445,249.568 226.402,249.367 226.404 C 249.165 226.407,248.235 227.140,247.300 228.034 M360.200 230.800 C 362.620 233.316,364.645 235.455,364.700 235.554 C 364.755 235.652,364.883 235.650,364.984 235.549 C 365.145 235.388,357.248 227.263,356.200 226.513 C 355.980 226.355,357.780 228.284,360.200 230.800 M300.065 229.063 L 297.800 231.327 300.000 229.397 C 301.210 228.336,302.371 227.317,302.580 227.134 C 302.789 226.950,302.818 226.800,302.645 226.800 C 302.471 226.800,301.310 227.819,300.065 229.063 M101.724 231.800 C 101.726 233.120,101.801 233.612,101.890 232.893 C 101.979 232.174,101.977 231.094,101.886 230.493 C 101.795 229.892,101.722 230.480,101.724 231.800 M243.400 231.917 C 243.180 232.084,242.190 233.117,241.201 234.211 L 239.402 236.200 241.701 234.014 C 242.965 232.811,244.000 231.776,244.000 231.714 C 244.000 231.532,243.829 231.590,243.400 231.917 M292.333 236.442 C 291.086 237.735,290.366 238.632,290.733 238.434 C 291.548 237.996,295.385 233.982,294.927 234.046 C 294.747 234.071,293.580 235.150,292.333 236.442 M314.281 238.200 C 315.074 238.970,315.820 239.600,315.940 239.600 C 316.059 239.600,315.546 238.970,314.800 238.200 C 314.054 237.430,313.307 236.800,313.141 236.800 C 312.975 236.800,313.488 237.430,314.281 238.200 M236.386 239.017 C 235.969 239.519,235.971 239.724,236.396 240.117 C 236.810 240.500,236.851 240.484,236.598 240.039 C 236.392 239.679,236.541 239.286,237.015 238.939 C 237.421 238.643,237.561 238.400,237.325 238.400 C 237.090 238.400,236.668 238.678,236.386 239.017 M368.688 239.613 C 368.812 240.090,368.590 240.793,368.150 241.313 L 367.400 242.200 368.300 241.438 C 369.177 240.696,369.563 238.800,368.837 238.800 C 368.638 238.800,368.571 239.166,368.688 239.613 M287.775 241.300 L 286.600 242.600 287.900 241.425 C 288.615 240.779,289.200 240.194,289.200 240.125 C 289.200 239.816,288.870 240.088,287.775 241.300 M285.000 243.850 C 284.281 244.462,284.134 244.705,284.633 244.457 C 285.366 244.093,286.741 242.776,286.349 242.814 C 286.267 242.822,285.660 243.288,285.000 243.850 M363.012 246.395 L 359.823 249.800 363.193 246.515 C 365.047 244.708,366.482 243.176,366.382 243.110 C 366.282 243.043,364.765 244.522,363.012 246.395 M243.600 248.400 C 244.040 248.840,244.518 249.200,244.662 249.200 C 244.806 249.200,244.598 248.840,244.200 248.400 C 243.802 247.960,243.324 247.600,243.138 247.600 C 242.952 247.600,243.160 247.960,243.600 248.400 M94.880 251.020 C 94.834 252.886,94.598 254.442,94.320 254.720 C 93.947 255.093,93.949 255.200,94.333 255.200 C 95.099 255.200,95.247 254.380,95.098 250.965 L 94.961 247.800 94.880 251.020 M358.723 250.700 C 357.634 251.968,357.483 252.626,358.553 251.438 C 359.129 250.799,359.600 250.214,359.600 250.138 C 359.600 249.838,359.296 250.032,358.723 250.700 M54.900 255.491 C 55.725 255.578,57.075 255.578,57.900 255.491 C 58.725 255.405,58.050 255.334,56.400 255.334 C 54.750 255.334,54.075 255.405,54.900 255.491 M85.500 255.493 C 86.435 255.577,87.965 255.577,88.900 255.493 C 89.835 255.409,89.070 255.340,87.200 255.340 C 85.330 255.340,84.565 255.409,85.500 255.493 M68.523 255.899 C 71.341 255.968,75.841 255.968,78.523 255.899 C 81.205 255.830,78.900 255.773,73.400 255.773 C 67.900 255.774,65.705 255.830,68.523 255.899 M271.016 257.797 C 270.364 258.329,269.914 258.840,270.016 258.932 C 270.117 259.024,270.740 258.582,271.400 257.950 C 272.857 256.555,272.641 256.469,271.016 257.797 M334.657 258.500 C 334.784 258.775,335.724 259.712,336.744 260.583 L 338.600 262.166 336.615 260.083 C 334.522 257.886,334.283 257.693,334.657 258.500 M346.922 262.587 C 346.305 263.130,345.907 263.580,346.038 263.587 C 346.169 263.594,346.799 263.150,347.438 262.600 C 348.077 262.051,348.475 261.601,348.322 261.600 C 348.170 261.600,347.540 262.044,346.922 262.587 M258.493 263.300 C 261.247 265.804,261.780 266.173,260.219 264.497 C 259.349 263.564,258.481 262.800,258.290 262.800 C 258.099 262.800,258.190 263.025,258.493 263.300 M262.856 265.613 C 261.616 266.646,262.175 266.635,263.491 265.600 C 264.050 265.160,264.349 264.806,264.154 264.813 C 263.959 264.821,263.375 265.181,262.856 265.613 M118.033 266.921 C 118.125 266.988,118.740 267.358,119.400 267.745 L 120.600 268.447 119.656 267.624 C 119.136 267.171,118.521 266.800,118.289 266.800 C 118.057 266.800,117.942 266.854,118.033 266.921 M143.600 283.742 C 143.600 284.049,146.423 285.710,146.617 285.517 C 146.713 285.421,146.073 284.939,145.196 284.446 C 144.318 283.952,143.600 283.636,143.600 283.742 M214.173 315.800 C 214.173 321.300,214.230 323.605,214.299 320.923 C 214.368 318.241,214.368 313.741,214.299 310.923 C 214.230 308.105,214.174 310.300,214.173 315.800 M204.200 324.165 C 204.860 324.732,205.565 325.197,205.767 325.198 C 206.201 325.200,206.196 325.196,204.400 324.037 L 203.000 323.134 204.200 324.165 " stroke="none" fill="#4c4c4c" fill-rule="evenodd"></path><path id="path8" d="M213.701 74.600 C 213.705 75.480,213.787 75.793,213.883 75.295 C 213.979 74.798,213.975 74.078,213.875 73.695 C 213.775 73.313,213.696 73.720,213.701 74.600 M214.193 177.200 C 214.193 201.510,214.241 211.455,214.300 199.300 C 214.359 187.145,214.359 167.255,214.300 155.100 C 214.241 142.945,214.193 152.890,214.193 177.200 M346.000 136.200 C 347.417 137.630,348.667 138.800,348.777 138.800 C 348.887 138.800,347.817 137.630,346.400 136.200 C 344.983 134.770,343.733 133.600,343.623 133.600 C 343.513 133.600,344.583 134.770,346.000 136.200 M64.880 143.898 C 66.794 143.971,70.034 143.971,72.080 143.898 C 74.126 143.826,72.560 143.766,68.600 143.765 C 64.640 143.765,62.966 143.824,64.880 143.898 M94.520 147.200 C 94.520 148.410,94.595 148.905,94.687 148.300 C 94.778 147.695,94.778 146.705,94.687 146.100 C 94.595 145.495,94.520 145.990,94.520 147.200 M321.600 153.800 C 320.628 154.790,319.923 155.600,320.033 155.600 C 320.143 155.600,321.028 154.790,322.000 153.800 C 322.972 152.810,323.677 152.000,323.567 152.000 C 323.457 152.000,322.572 152.810,321.600 153.800 M366.400 156.600 C 367.146 157.370,367.847 158.000,367.957 158.000 C 368.067 158.000,367.546 157.370,366.800 156.600 C 366.054 155.830,365.353 155.200,365.243 155.200 C 365.133 155.200,365.654 155.830,366.400 156.600 M50.579 168.600 C 50.579 175.860,50.633 178.886,50.699 175.325 C 50.765 171.764,50.766 165.824,50.699 162.125 C 50.633 158.426,50.579 161.340,50.579 168.600 M365.188 163.100 L 362.600 165.800 365.300 163.212 C 366.785 161.788,368.000 160.573,368.000 160.512 C 368.000 160.217,367.593 160.592,365.188 163.100 M305.385 170.100 L 303.400 172.200 305.500 170.215 C 307.451 168.371,307.783 168.000,307.485 168.000 C 307.422 168.000,306.477 168.945,305.385 170.100 M251.200 175.000 C 252.617 176.430,253.867 177.600,253.977 177.600 C 254.087 177.600,253.017 176.430,251.600 175.000 C 250.183 173.570,248.933 172.400,248.823 172.400 C 248.713 172.400,249.783 173.570,251.200 175.000 M101.789 201.600 C 101.789 216.450,101.839 222.525,101.900 215.100 C 101.961 207.675,101.961 195.525,101.900 188.100 C 101.839 180.675,101.789 186.750,101.789 201.600 M273.381 202.100 L 271.800 203.800 273.500 202.219 C 275.081 200.748,275.384 200.400,275.081 200.400 C 275.016 200.400,274.251 201.165,273.381 202.100 M50.582 217.600 C 50.582 226.510,50.635 230.155,50.700 225.700 C 50.764 221.245,50.764 213.955,50.700 209.500 C 50.635 205.045,50.582 208.690,50.582 217.600 M299.785 228.900 L 297.800 231.000 299.900 229.015 C 301.851 227.171,302.183 226.800,301.885 226.800 C 301.822 226.800,300.877 227.745,299.785 228.900 M361.800 232.800 C 362.659 233.680,363.452 234.400,363.562 234.400 C 363.672 234.400,363.059 233.680,362.200 232.800 C 361.341 231.920,360.548 231.200,360.438 231.200 C 360.328 231.200,360.941 231.920,361.800 232.800 M362.185 246.900 L 360.200 249.000 362.300 247.015 C 364.251 245.171,364.583 244.800,364.285 244.800 C 364.222 244.800,363.277 245.745,362.185 246.900 M94.520 252.000 C 94.520 253.210,94.595 253.705,94.687 253.100 C 94.778 252.495,94.778 251.505,94.687 250.900 C 94.595 250.295,94.520 250.790,94.520 252.000 M259.800 264.000 C 260.659 264.880,261.452 265.600,261.562 265.600 C 261.672 265.600,261.059 264.880,260.200 264.000 C 259.341 263.120,258.548 262.400,258.438 262.400 C 258.328 262.400,258.941 263.120,259.800 264.000 M213.720 322.000 C 213.720 323.210,213.795 323.705,213.887 323.100 C 213.978 322.495,213.978 321.505,213.887 320.900 C 213.795 320.295,213.720 320.790,213.720 322.000 " stroke="none" fill="#5c5c5c" fill-rule="evenodd"></path></g></svg>